%TF.GenerationSoftware,KiCad,Pcbnew,(6.0.7)*%
%TF.CreationDate,2022-09-04T12:35:54-05:00*%
%TF.ProjectId,Mechan-o-bell_PCB,4d656368-616e-42d6-9f2d-62656c6c5f50,rev?*%
%TF.SameCoordinates,Original*%
%TF.FileFunction,Paste,Top*%
%TF.FilePolarity,Positive*%
%FSLAX46Y46*%
G04 Gerber Fmt 4.6, Leading zero omitted, Abs format (unit mm)*
G04 Created by KiCad (PCBNEW (6.0.7)) date 2022-09-04 12:35:54*
%MOMM*%
%LPD*%
G01*
G04 APERTURE LIST*
G04 Aperture macros list*
%AMRoundRect*
0 Rectangle with rounded corners*
0 $1 Rounding radius*
0 $2 $3 $4 $5 $6 $7 $8 $9 X,Y pos of 4 corners*
0 Add a 4 corners polygon primitive as box body*
4,1,4,$2,$3,$4,$5,$6,$7,$8,$9,$2,$3,0*
0 Add four circle primitives for the rounded corners*
1,1,$1+$1,$2,$3*
1,1,$1+$1,$4,$5*
1,1,$1+$1,$6,$7*
1,1,$1+$1,$8,$9*
0 Add four rect primitives between the rounded corners*
20,1,$1+$1,$2,$3,$4,$5,0*
20,1,$1+$1,$4,$5,$6,$7,0*
20,1,$1+$1,$6,$7,$8,$9,0*
20,1,$1+$1,$8,$9,$2,$3,0*%
G04 Aperture macros list end*
%ADD10R,2.750000X1.000000*%
%ADD11RoundRect,0.250000X-0.250000X-0.475000X0.250000X-0.475000X0.250000X0.475000X-0.250000X0.475000X0*%
%ADD12RoundRect,0.250000X-0.262500X-0.450000X0.262500X-0.450000X0.262500X0.450000X-0.262500X0.450000X0*%
%ADD13R,0.900000X0.900000*%
%ADD14R,0.900000X1.500000*%
%ADD15R,1.500000X0.900000*%
%ADD16RoundRect,0.250000X-0.475000X0.250000X-0.475000X-0.250000X0.475000X-0.250000X0.475000X0.250000X0*%
%ADD17R,0.900000X0.400000*%
%ADD18RoundRect,0.150000X-0.587500X-0.150000X0.587500X-0.150000X0.587500X0.150000X-0.587500X0.150000X0*%
%ADD19RoundRect,0.250000X0.250000X0.475000X-0.250000X0.475000X-0.250000X-0.475000X0.250000X-0.475000X0*%
%ADD20R,1.500000X1.000000*%
%ADD21R,1.500000X2.000000*%
%ADD22R,3.800000X2.000000*%
%ADD23O,1.000000X1.800000*%
%ADD24O,1.000000X2.100000*%
%ADD25R,0.250000X1.400000*%
G04 APERTURE END LIST*
D10*
%TO.C,SW1*%
X113075000Y-70000000D03*
X107325000Y-70000000D03*
X113075000Y-66000000D03*
X107325000Y-66000000D03*
%TD*%
D11*
%TO.C,C1*%
X146950000Y-69500000D03*
X145050000Y-69500000D03*
%TD*%
D10*
%TO.C,SW2*%
X101875000Y-70000000D03*
X96125000Y-70000000D03*
X101875000Y-66000000D03*
X96125000Y-66000000D03*
%TD*%
D12*
%TO.C,R5*%
X155825000Y-72000000D03*
X154000000Y-72000000D03*
%TD*%
D13*
%TO.C,U2*%
X152940000Y-83750000D03*
X151540000Y-85150000D03*
X150140000Y-85150000D03*
X150140000Y-82350000D03*
X151540000Y-82350000D03*
X152940000Y-85150000D03*
X151540000Y-83750000D03*
X150140000Y-83750000D03*
X152940000Y-82350000D03*
D14*
X159260000Y-94000000D03*
X157990000Y-94000000D03*
X156720000Y-94000000D03*
X155450000Y-94000000D03*
X154180000Y-94000000D03*
X152910000Y-94000000D03*
X151640000Y-94000000D03*
X150370000Y-94000000D03*
X149100000Y-94000000D03*
X147830000Y-94000000D03*
X146560000Y-94000000D03*
X145290000Y-94000000D03*
X144020000Y-94000000D03*
X142750000Y-94000000D03*
D15*
X141500000Y-92235000D03*
X141500000Y-90965000D03*
X141500000Y-89695000D03*
X141500000Y-88425000D03*
X141500000Y-87155000D03*
X141500000Y-85885000D03*
X141500000Y-84615000D03*
X141500000Y-83345000D03*
X141500000Y-82075000D03*
X141500000Y-80805000D03*
X141500000Y-79535000D03*
X141500000Y-78265000D03*
D14*
X142750000Y-76500000D03*
X144020000Y-76500000D03*
X145290000Y-76500000D03*
X146560000Y-76500000D03*
X147830000Y-76500000D03*
X149100000Y-76500000D03*
X150370000Y-76500000D03*
X151640000Y-76500000D03*
X152910000Y-76500000D03*
X154180000Y-76500000D03*
X155450000Y-76500000D03*
X156720000Y-76500000D03*
X157990000Y-76500000D03*
X159260000Y-76500000D03*
%TD*%
D16*
%TO.C,C3*%
X131700000Y-73550000D03*
X131700000Y-71650000D03*
%TD*%
D11*
%TO.C,C8*%
X164450000Y-97500000D03*
X162550000Y-97500000D03*
%TD*%
D17*
%TO.C,RN1*%
X134850000Y-59800000D03*
X134850000Y-60600000D03*
X134850000Y-61400000D03*
X134850000Y-62200000D03*
X133150000Y-62200000D03*
X133150000Y-61400000D03*
X133150000Y-60600000D03*
X133150000Y-59800000D03*
%TD*%
D12*
%TO.C,R3*%
X109500000Y-79000000D03*
X107675000Y-79000000D03*
%TD*%
D18*
%TO.C,Q2*%
X118437500Y-84500000D03*
X116562500Y-85450000D03*
X116562500Y-83550000D03*
%TD*%
D12*
%TO.C,R4*%
X118500000Y-79000000D03*
X116675000Y-79000000D03*
%TD*%
D18*
%TO.C,Q1*%
X109437500Y-84500000D03*
X107562500Y-85450000D03*
X107562500Y-83550000D03*
%TD*%
D11*
%TO.C,C6*%
X155950000Y-68500000D03*
X154050000Y-68500000D03*
%TD*%
D19*
%TO.C,C2*%
X139600000Y-69500000D03*
X141500000Y-69500000D03*
%TD*%
D16*
%TO.C,C4*%
X119200000Y-73600000D03*
X119200000Y-71700000D03*
%TD*%
D12*
%TO.C,R1*%
X103412500Y-79000000D03*
X101587500Y-79000000D03*
%TD*%
%TO.C,R2*%
X124000000Y-79000000D03*
X122175000Y-79000000D03*
%TD*%
D11*
%TO.C,C7*%
X160900000Y-72000000D03*
X159000000Y-72000000D03*
%TD*%
D20*
%TO.C,D1*%
X167550000Y-101100000D03*
X167550000Y-97900000D03*
X172450000Y-97900000D03*
X172450000Y-101100000D03*
%TD*%
D21*
%TO.C,U1*%
X127500000Y-71300000D03*
X125200000Y-71300000D03*
D22*
X125200000Y-65000000D03*
D21*
X122900000Y-71300000D03*
%TD*%
D11*
%TO.C,C5*%
X160900000Y-68500000D03*
X159000000Y-68500000D03*
%TD*%
D23*
%TO.C,P1*%
X147220000Y-60000000D03*
D24*
X138580000Y-64150000D03*
D23*
X138580000Y-60000000D03*
D24*
X147220000Y-64150000D03*
D25*
X145975000Y-64850000D03*
X145175000Y-64850000D03*
X141650000Y-64850000D03*
X143650000Y-64850000D03*
X142150000Y-64850000D03*
X141150000Y-64850000D03*
X140625000Y-64850000D03*
X139825000Y-64850000D03*
X139575000Y-64850000D03*
X140375000Y-64850000D03*
X144650000Y-64850000D03*
X142650000Y-64850000D03*
X143150000Y-64850000D03*
X144150000Y-64850000D03*
X145425000Y-64850000D03*
X146225000Y-64850000D03*
%TD*%
M02*
