M48
; DRILL file {KiCad (6.0.7)} date Sun 04 Sep 2022 12:35:57 PM CDT
; FORMAT={-:-/ absolute / inch / decimal}
; #@! TF.CreationDate,2022-09-04T12:35:57-05:00
; #@! TF.GenerationSoftware,Kicad,Pcbnew,(6.0.7)
; #@! TF.FileFunction,Plated,1,2,PTH
FMAT,2
INCH
; #@! TA.AperFunction,Plated,PTH,ViaDrill
T1C0.0157
; #@! TA.AperFunction,Plated,PTH,ComponentDrill
T2C0.0236
; #@! TA.AperFunction,Plated,PTH,ComponentDrill
T3C0.0394
; #@! TA.AperFunction,Plated,PTH,ComponentDrill
T4C0.0520
%
G90
G05
T1
X4.1181Y-2.5984
X4.2126Y-3.4724
X4.3858Y-3.2677
X4.5433Y-3.4646
X4.5512Y-2.5984
X4.7795Y-3.2677
X4.8346Y-3.4409
X4.9291Y-2.7028
X5.3228Y-2.5591
X5.4921Y-3.3268
X5.4921Y-3.3858
X5.5512Y-2.6181
X5.7087Y-2.6181
X5.7953Y-3.0945
X5.8583Y-2.7874
X6.0Y-3.4882
X6.0827Y-2.7756
X6.1575Y-3.6063
X6.2205Y-2.7756
X6.2402Y-3.6024
X6.3189Y-3.8386
X6.5177Y-3.8583
X6.7323Y-3.8976
T3
X5.4577Y-3.9764
X5.5577Y-3.9764
X5.6577Y-3.9764
X5.7577Y-3.9764
X5.8577Y-3.9764
X5.9577Y-3.9764
X6.0577Y-3.9764
X6.1577Y-3.9764
X7.0866Y-3.2677
X7.0866Y-3.3677
X7.0866Y-3.4677
T4
X3.4646Y-3.2061
X3.4646Y-3.403
X4.4291Y-3.7992
X4.626Y-3.7992
X4.8228Y-3.7992
X5.0197Y-3.7992
T2
G00X5.4559Y-2.378
M15
G01X5.4559Y-2.3465
M16
G05
G00X5.4559Y-2.5472
M15
G01X5.4559Y-2.5039
M16
G05
G00X5.7961Y-2.378
M15
G01X5.7961Y-2.3465
M16
G05
G00X5.7961Y-2.5472
M15
G01X5.7961Y-2.5039
M16
G05
T0
M30
