%TF.GenerationSoftware,KiCad,Pcbnew,(6.0.7)*%
%TF.CreationDate,2022-09-04T12:35:54-05:00*%
%TF.ProjectId,Mechan-o-bell_PCB,4d656368-616e-42d6-9f2d-62656c6c5f50,rev?*%
%TF.SameCoordinates,Original*%
%TF.FileFunction,Legend,Top*%
%TF.FilePolarity,Positive*%
%FSLAX46Y46*%
G04 Gerber Fmt 4.6, Leading zero omitted, Abs format (unit mm)*
G04 Created by KiCad (PCBNEW (6.0.7)) date 2022-09-04 12:35:54*
%MOMM*%
%LPD*%
G01*
G04 APERTURE LIST*
%ADD10C,0.150000*%
%ADD11C,0.120000*%
G04 APERTURE END LIST*
D10*
%TO.C,SW1*%
X108866666Y-63904761D02*
X109009523Y-63952380D01*
X109247619Y-63952380D01*
X109342857Y-63904761D01*
X109390476Y-63857142D01*
X109438095Y-63761904D01*
X109438095Y-63666666D01*
X109390476Y-63571428D01*
X109342857Y-63523809D01*
X109247619Y-63476190D01*
X109057142Y-63428571D01*
X108961904Y-63380952D01*
X108914285Y-63333333D01*
X108866666Y-63238095D01*
X108866666Y-63142857D01*
X108914285Y-63047619D01*
X108961904Y-63000000D01*
X109057142Y-62952380D01*
X109295238Y-62952380D01*
X109438095Y-63000000D01*
X109771428Y-62952380D02*
X110009523Y-63952380D01*
X110200000Y-63238095D01*
X110390476Y-63952380D01*
X110628571Y-62952380D01*
X111533333Y-63952380D02*
X110961904Y-63952380D01*
X111247619Y-63952380D02*
X111247619Y-62952380D01*
X111152380Y-63095238D01*
X111057142Y-63190476D01*
X110961904Y-63238095D01*
%TO.C,J4*%
X179666666Y-80122380D02*
X179666666Y-80836666D01*
X179619047Y-80979523D01*
X179523809Y-81074761D01*
X179380952Y-81122380D01*
X179285714Y-81122380D01*
X180571428Y-80455714D02*
X180571428Y-81122380D01*
X180333333Y-80074761D02*
X180095238Y-80789047D01*
X180714285Y-80789047D01*
%TO.C,C1*%
X145833333Y-68177142D02*
X145785714Y-68224761D01*
X145642857Y-68272380D01*
X145547619Y-68272380D01*
X145404761Y-68224761D01*
X145309523Y-68129523D01*
X145261904Y-68034285D01*
X145214285Y-67843809D01*
X145214285Y-67700952D01*
X145261904Y-67510476D01*
X145309523Y-67415238D01*
X145404761Y-67320000D01*
X145547619Y-67272380D01*
X145642857Y-67272380D01*
X145785714Y-67320000D01*
X145833333Y-67367619D01*
X146785714Y-68272380D02*
X146214285Y-68272380D01*
X146500000Y-68272380D02*
X146500000Y-67272380D01*
X146404761Y-67415238D01*
X146309523Y-67510476D01*
X146214285Y-67558095D01*
%TO.C,SW2*%
X97666666Y-63904761D02*
X97809523Y-63952380D01*
X98047619Y-63952380D01*
X98142857Y-63904761D01*
X98190476Y-63857142D01*
X98238095Y-63761904D01*
X98238095Y-63666666D01*
X98190476Y-63571428D01*
X98142857Y-63523809D01*
X98047619Y-63476190D01*
X97857142Y-63428571D01*
X97761904Y-63380952D01*
X97714285Y-63333333D01*
X97666666Y-63238095D01*
X97666666Y-63142857D01*
X97714285Y-63047619D01*
X97761904Y-63000000D01*
X97857142Y-62952380D01*
X98095238Y-62952380D01*
X98238095Y-63000000D01*
X98571428Y-62952380D02*
X98809523Y-63952380D01*
X99000000Y-63238095D01*
X99190476Y-63952380D01*
X99428571Y-62952380D01*
X99761904Y-63047619D02*
X99809523Y-63000000D01*
X99904761Y-62952380D01*
X100142857Y-62952380D01*
X100238095Y-63000000D01*
X100285714Y-63047619D01*
X100333333Y-63142857D01*
X100333333Y-63238095D01*
X100285714Y-63380952D01*
X99714285Y-63952380D01*
X100333333Y-63952380D01*
%TO.C,R5*%
X154745833Y-70802380D02*
X154412500Y-70326190D01*
X154174404Y-70802380D02*
X154174404Y-69802380D01*
X154555357Y-69802380D01*
X154650595Y-69850000D01*
X154698214Y-69897619D01*
X154745833Y-69992857D01*
X154745833Y-70135714D01*
X154698214Y-70230952D01*
X154650595Y-70278571D01*
X154555357Y-70326190D01*
X154174404Y-70326190D01*
X155650595Y-69802380D02*
X155174404Y-69802380D01*
X155126785Y-70278571D01*
X155174404Y-70230952D01*
X155269642Y-70183333D01*
X155507738Y-70183333D01*
X155602976Y-70230952D01*
X155650595Y-70278571D01*
X155698214Y-70373809D01*
X155698214Y-70611904D01*
X155650595Y-70707142D01*
X155602976Y-70754761D01*
X155507738Y-70802380D01*
X155269642Y-70802380D01*
X155174404Y-70754761D01*
X155126785Y-70707142D01*
%TO.C,U2*%
X167502380Y-86011904D02*
X168311904Y-86011904D01*
X168407142Y-85964285D01*
X168454761Y-85916666D01*
X168502380Y-85821428D01*
X168502380Y-85630952D01*
X168454761Y-85535714D01*
X168407142Y-85488095D01*
X168311904Y-85440476D01*
X167502380Y-85440476D01*
X167597619Y-85011904D02*
X167550000Y-84964285D01*
X167502380Y-84869047D01*
X167502380Y-84630952D01*
X167550000Y-84535714D01*
X167597619Y-84488095D01*
X167692857Y-84440476D01*
X167788095Y-84440476D01*
X167930952Y-84488095D01*
X168502380Y-85059523D01*
X168502380Y-84440476D01*
X163916666Y-90011904D02*
X163916666Y-89535714D01*
X164202380Y-90107142D02*
X163202380Y-89773809D01*
X164202380Y-89440476D01*
X163535714Y-89107142D02*
X164202380Y-89107142D01*
X163630952Y-89107142D02*
X163583333Y-89059523D01*
X163535714Y-88964285D01*
X163535714Y-88821428D01*
X163583333Y-88726190D01*
X163678571Y-88678571D01*
X164202380Y-88678571D01*
X163535714Y-88345238D02*
X163535714Y-87964285D01*
X163202380Y-88202380D02*
X164059523Y-88202380D01*
X164154761Y-88154761D01*
X164202380Y-88059523D01*
X164202380Y-87964285D01*
X164154761Y-87250000D02*
X164202380Y-87345238D01*
X164202380Y-87535714D01*
X164154761Y-87630952D01*
X164059523Y-87678571D01*
X163678571Y-87678571D01*
X163583333Y-87630952D01*
X163535714Y-87535714D01*
X163535714Y-87345238D01*
X163583333Y-87250000D01*
X163678571Y-87202380D01*
X163773809Y-87202380D01*
X163869047Y-87678571D01*
X163535714Y-86773809D02*
X164202380Y-86773809D01*
X163630952Y-86773809D02*
X163583333Y-86726190D01*
X163535714Y-86630952D01*
X163535714Y-86488095D01*
X163583333Y-86392857D01*
X163678571Y-86345238D01*
X164202380Y-86345238D01*
X163535714Y-85869047D02*
X164202380Y-85869047D01*
X163630952Y-85869047D02*
X163583333Y-85821428D01*
X163535714Y-85726190D01*
X163535714Y-85583333D01*
X163583333Y-85488095D01*
X163678571Y-85440476D01*
X164202380Y-85440476D01*
X164202380Y-84535714D02*
X163678571Y-84535714D01*
X163583333Y-84583333D01*
X163535714Y-84678571D01*
X163535714Y-84869047D01*
X163583333Y-84964285D01*
X164154761Y-84535714D02*
X164202380Y-84630952D01*
X164202380Y-84869047D01*
X164154761Y-84964285D01*
X164059523Y-85011904D01*
X163964285Y-85011904D01*
X163869047Y-84964285D01*
X163821428Y-84869047D01*
X163821428Y-84630952D01*
X163773809Y-84535714D01*
X163916666Y-83345238D02*
X163916666Y-82869047D01*
X164202380Y-83440476D02*
X163202380Y-83107142D01*
X164202380Y-82773809D01*
X164202380Y-82440476D02*
X163535714Y-82440476D01*
X163726190Y-82440476D02*
X163630952Y-82392857D01*
X163583333Y-82345238D01*
X163535714Y-82250000D01*
X163535714Y-82154761D01*
X164154761Y-81440476D02*
X164202380Y-81535714D01*
X164202380Y-81726190D01*
X164154761Y-81821428D01*
X164059523Y-81869047D01*
X163678571Y-81869047D01*
X163583333Y-81821428D01*
X163535714Y-81726190D01*
X163535714Y-81535714D01*
X163583333Y-81440476D01*
X163678571Y-81392857D01*
X163773809Y-81392857D01*
X163869047Y-81869047D01*
X164202380Y-80535714D02*
X163678571Y-80535714D01*
X163583333Y-80583333D01*
X163535714Y-80678571D01*
X163535714Y-80869047D01*
X163583333Y-80964285D01*
X164154761Y-80535714D02*
X164202380Y-80630952D01*
X164202380Y-80869047D01*
X164154761Y-80964285D01*
X164059523Y-81011904D01*
X163964285Y-81011904D01*
X163869047Y-80964285D01*
X163821428Y-80869047D01*
X163821428Y-80630952D01*
X163773809Y-80535714D01*
%TO.C,C3*%
X133737142Y-72766666D02*
X133784761Y-72814285D01*
X133832380Y-72957142D01*
X133832380Y-73052380D01*
X133784761Y-73195238D01*
X133689523Y-73290476D01*
X133594285Y-73338095D01*
X133403809Y-73385714D01*
X133260952Y-73385714D01*
X133070476Y-73338095D01*
X132975238Y-73290476D01*
X132880000Y-73195238D01*
X132832380Y-73052380D01*
X132832380Y-72957142D01*
X132880000Y-72814285D01*
X132927619Y-72766666D01*
X132832380Y-72433333D02*
X132832380Y-71814285D01*
X133213333Y-72147619D01*
X133213333Y-72004761D01*
X133260952Y-71909523D01*
X133308571Y-71861904D01*
X133403809Y-71814285D01*
X133641904Y-71814285D01*
X133737142Y-71861904D01*
X133784761Y-71909523D01*
X133832380Y-72004761D01*
X133832380Y-72290476D01*
X133784761Y-72385714D01*
X133737142Y-72433333D01*
%TO.C,C8*%
X163333333Y-96177142D02*
X163285714Y-96224761D01*
X163142857Y-96272380D01*
X163047619Y-96272380D01*
X162904761Y-96224761D01*
X162809523Y-96129523D01*
X162761904Y-96034285D01*
X162714285Y-95843809D01*
X162714285Y-95700952D01*
X162761904Y-95510476D01*
X162809523Y-95415238D01*
X162904761Y-95320000D01*
X163047619Y-95272380D01*
X163142857Y-95272380D01*
X163285714Y-95320000D01*
X163333333Y-95367619D01*
X163904761Y-95700952D02*
X163809523Y-95653333D01*
X163761904Y-95605714D01*
X163714285Y-95510476D01*
X163714285Y-95462857D01*
X163761904Y-95367619D01*
X163809523Y-95320000D01*
X163904761Y-95272380D01*
X164095238Y-95272380D01*
X164190476Y-95320000D01*
X164238095Y-95367619D01*
X164285714Y-95462857D01*
X164285714Y-95510476D01*
X164238095Y-95605714D01*
X164190476Y-95653333D01*
X164095238Y-95700952D01*
X163904761Y-95700952D01*
X163809523Y-95748571D01*
X163761904Y-95796190D01*
X163714285Y-95891428D01*
X163714285Y-96081904D01*
X163761904Y-96177142D01*
X163809523Y-96224761D01*
X163904761Y-96272380D01*
X164095238Y-96272380D01*
X164190476Y-96224761D01*
X164238095Y-96177142D01*
X164285714Y-96081904D01*
X164285714Y-95891428D01*
X164238095Y-95796190D01*
X164190476Y-95748571D01*
X164095238Y-95700952D01*
%TO.C,RN1*%
X133309523Y-58852380D02*
X132976190Y-58376190D01*
X132738095Y-58852380D02*
X132738095Y-57852380D01*
X133119047Y-57852380D01*
X133214285Y-57900000D01*
X133261904Y-57947619D01*
X133309523Y-58042857D01*
X133309523Y-58185714D01*
X133261904Y-58280952D01*
X133214285Y-58328571D01*
X133119047Y-58376190D01*
X132738095Y-58376190D01*
X133738095Y-58852380D02*
X133738095Y-57852380D01*
X134309523Y-58852380D01*
X134309523Y-57852380D01*
X135309523Y-58852380D02*
X134738095Y-58852380D01*
X135023809Y-58852380D02*
X135023809Y-57852380D01*
X134928571Y-57995238D01*
X134833333Y-58090476D01*
X134738095Y-58138095D01*
%TO.C,R3*%
X108420833Y-77802380D02*
X108087500Y-77326190D01*
X107849404Y-77802380D02*
X107849404Y-76802380D01*
X108230357Y-76802380D01*
X108325595Y-76850000D01*
X108373214Y-76897619D01*
X108420833Y-76992857D01*
X108420833Y-77135714D01*
X108373214Y-77230952D01*
X108325595Y-77278571D01*
X108230357Y-77326190D01*
X107849404Y-77326190D01*
X108754166Y-76802380D02*
X109373214Y-76802380D01*
X109039880Y-77183333D01*
X109182738Y-77183333D01*
X109277976Y-77230952D01*
X109325595Y-77278571D01*
X109373214Y-77373809D01*
X109373214Y-77611904D01*
X109325595Y-77707142D01*
X109277976Y-77754761D01*
X109182738Y-77802380D01*
X108897023Y-77802380D01*
X108801785Y-77754761D01*
X108754166Y-77707142D01*
%TO.C,J1*%
X94442380Y-79848333D02*
X95156666Y-79848333D01*
X95299523Y-79895952D01*
X95394761Y-79991190D01*
X95442380Y-80134047D01*
X95442380Y-80229285D01*
X95442380Y-78848333D02*
X95442380Y-79419761D01*
X95442380Y-79134047D02*
X94442380Y-79134047D01*
X94585238Y-79229285D01*
X94680476Y-79324523D01*
X94728095Y-79419761D01*
%TO.C,Q2*%
X117404761Y-82647619D02*
X117309523Y-82600000D01*
X117214285Y-82504761D01*
X117071428Y-82361904D01*
X116976190Y-82314285D01*
X116880952Y-82314285D01*
X116928571Y-82552380D02*
X116833333Y-82504761D01*
X116738095Y-82409523D01*
X116690476Y-82219047D01*
X116690476Y-81885714D01*
X116738095Y-81695238D01*
X116833333Y-81600000D01*
X116928571Y-81552380D01*
X117119047Y-81552380D01*
X117214285Y-81600000D01*
X117309523Y-81695238D01*
X117357142Y-81885714D01*
X117357142Y-82219047D01*
X117309523Y-82409523D01*
X117214285Y-82504761D01*
X117119047Y-82552380D01*
X116928571Y-82552380D01*
X117738095Y-81647619D02*
X117785714Y-81600000D01*
X117880952Y-81552380D01*
X118119047Y-81552380D01*
X118214285Y-81600000D01*
X118261904Y-81647619D01*
X118309523Y-81742857D01*
X118309523Y-81838095D01*
X118261904Y-81980952D01*
X117690476Y-82552380D01*
X118309523Y-82552380D01*
%TO.C,R4*%
X117420833Y-77802380D02*
X117087500Y-77326190D01*
X116849404Y-77802380D02*
X116849404Y-76802380D01*
X117230357Y-76802380D01*
X117325595Y-76850000D01*
X117373214Y-76897619D01*
X117420833Y-76992857D01*
X117420833Y-77135714D01*
X117373214Y-77230952D01*
X117325595Y-77278571D01*
X117230357Y-77326190D01*
X116849404Y-77326190D01*
X118277976Y-77135714D02*
X118277976Y-77802380D01*
X118039880Y-76754761D02*
X117801785Y-77469047D01*
X118420833Y-77469047D01*
%TO.C,Q1*%
X108404761Y-82647619D02*
X108309523Y-82600000D01*
X108214285Y-82504761D01*
X108071428Y-82361904D01*
X107976190Y-82314285D01*
X107880952Y-82314285D01*
X107928571Y-82552380D02*
X107833333Y-82504761D01*
X107738095Y-82409523D01*
X107690476Y-82219047D01*
X107690476Y-81885714D01*
X107738095Y-81695238D01*
X107833333Y-81600000D01*
X107928571Y-81552380D01*
X108119047Y-81552380D01*
X108214285Y-81600000D01*
X108309523Y-81695238D01*
X108357142Y-81885714D01*
X108357142Y-82219047D01*
X108309523Y-82409523D01*
X108214285Y-82504761D01*
X108119047Y-82552380D01*
X107928571Y-82552380D01*
X109309523Y-82552380D02*
X108738095Y-82552380D01*
X109023809Y-82552380D02*
X109023809Y-81552380D01*
X108928571Y-81695238D01*
X108833333Y-81790476D01*
X108738095Y-81838095D01*
%TO.C,C6*%
X154833333Y-67177142D02*
X154785714Y-67224761D01*
X154642857Y-67272380D01*
X154547619Y-67272380D01*
X154404761Y-67224761D01*
X154309523Y-67129523D01*
X154261904Y-67034285D01*
X154214285Y-66843809D01*
X154214285Y-66700952D01*
X154261904Y-66510476D01*
X154309523Y-66415238D01*
X154404761Y-66320000D01*
X154547619Y-66272380D01*
X154642857Y-66272380D01*
X154785714Y-66320000D01*
X154833333Y-66367619D01*
X155690476Y-66272380D02*
X155500000Y-66272380D01*
X155404761Y-66320000D01*
X155357142Y-66367619D01*
X155261904Y-66510476D01*
X155214285Y-66700952D01*
X155214285Y-67081904D01*
X155261904Y-67177142D01*
X155309523Y-67224761D01*
X155404761Y-67272380D01*
X155595238Y-67272380D01*
X155690476Y-67224761D01*
X155738095Y-67177142D01*
X155785714Y-67081904D01*
X155785714Y-66843809D01*
X155738095Y-66748571D01*
X155690476Y-66700952D01*
X155595238Y-66653333D01*
X155404761Y-66653333D01*
X155309523Y-66700952D01*
X155261904Y-66748571D01*
X155214285Y-66843809D01*
%TO.C,C2*%
X140383333Y-71537142D02*
X140335714Y-71584761D01*
X140192857Y-71632380D01*
X140097619Y-71632380D01*
X139954761Y-71584761D01*
X139859523Y-71489523D01*
X139811904Y-71394285D01*
X139764285Y-71203809D01*
X139764285Y-71060952D01*
X139811904Y-70870476D01*
X139859523Y-70775238D01*
X139954761Y-70680000D01*
X140097619Y-70632380D01*
X140192857Y-70632380D01*
X140335714Y-70680000D01*
X140383333Y-70727619D01*
X140764285Y-70727619D02*
X140811904Y-70680000D01*
X140907142Y-70632380D01*
X141145238Y-70632380D01*
X141240476Y-70680000D01*
X141288095Y-70727619D01*
X141335714Y-70822857D01*
X141335714Y-70918095D01*
X141288095Y-71060952D01*
X140716666Y-71632380D01*
X141335714Y-71632380D01*
%TO.C,C4*%
X121237142Y-72816666D02*
X121284761Y-72864285D01*
X121332380Y-73007142D01*
X121332380Y-73102380D01*
X121284761Y-73245238D01*
X121189523Y-73340476D01*
X121094285Y-73388095D01*
X120903809Y-73435714D01*
X120760952Y-73435714D01*
X120570476Y-73388095D01*
X120475238Y-73340476D01*
X120380000Y-73245238D01*
X120332380Y-73102380D01*
X120332380Y-73007142D01*
X120380000Y-72864285D01*
X120427619Y-72816666D01*
X120665714Y-71959523D02*
X121332380Y-71959523D01*
X120284761Y-72197619D02*
X120999047Y-72435714D01*
X120999047Y-71816666D01*
%TO.C,R1*%
X102333333Y-77802380D02*
X102000000Y-77326190D01*
X101761904Y-77802380D02*
X101761904Y-76802380D01*
X102142857Y-76802380D01*
X102238095Y-76850000D01*
X102285714Y-76897619D01*
X102333333Y-76992857D01*
X102333333Y-77135714D01*
X102285714Y-77230952D01*
X102238095Y-77278571D01*
X102142857Y-77326190D01*
X101761904Y-77326190D01*
X103285714Y-77802380D02*
X102714285Y-77802380D01*
X103000000Y-77802380D02*
X103000000Y-76802380D01*
X102904761Y-76945238D01*
X102809523Y-77040476D01*
X102714285Y-77088095D01*
%TO.C,R2*%
X122920833Y-77802380D02*
X122587500Y-77326190D01*
X122349404Y-77802380D02*
X122349404Y-76802380D01*
X122730357Y-76802380D01*
X122825595Y-76850000D01*
X122873214Y-76897619D01*
X122920833Y-76992857D01*
X122920833Y-77135714D01*
X122873214Y-77230952D01*
X122825595Y-77278571D01*
X122730357Y-77326190D01*
X122349404Y-77326190D01*
X123301785Y-76897619D02*
X123349404Y-76850000D01*
X123444642Y-76802380D01*
X123682738Y-76802380D01*
X123777976Y-76850000D01*
X123825595Y-76897619D01*
X123873214Y-76992857D01*
X123873214Y-77088095D01*
X123825595Y-77230952D01*
X123254166Y-77802380D01*
X123873214Y-77802380D01*
%TO.C,C7*%
X159783333Y-70677142D02*
X159735714Y-70724761D01*
X159592857Y-70772380D01*
X159497619Y-70772380D01*
X159354761Y-70724761D01*
X159259523Y-70629523D01*
X159211904Y-70534285D01*
X159164285Y-70343809D01*
X159164285Y-70200952D01*
X159211904Y-70010476D01*
X159259523Y-69915238D01*
X159354761Y-69820000D01*
X159497619Y-69772380D01*
X159592857Y-69772380D01*
X159735714Y-69820000D01*
X159783333Y-69867619D01*
X160116666Y-69772380D02*
X160783333Y-69772380D01*
X160354761Y-70772380D01*
%TO.C,J3*%
X135747380Y-101333333D02*
X136461666Y-101333333D01*
X136604523Y-101380952D01*
X136699761Y-101476190D01*
X136747380Y-101619047D01*
X136747380Y-101714285D01*
X135747380Y-100952380D02*
X135747380Y-100333333D01*
X136128333Y-100666666D01*
X136128333Y-100523809D01*
X136175952Y-100428571D01*
X136223571Y-100380952D01*
X136318809Y-100333333D01*
X136556904Y-100333333D01*
X136652142Y-100380952D01*
X136699761Y-100428571D01*
X136747380Y-100523809D01*
X136747380Y-100809523D01*
X136699761Y-100904761D01*
X136652142Y-100952380D01*
%TO.C,J2*%
X119666666Y-88802380D02*
X119666666Y-89516666D01*
X119619047Y-89659523D01*
X119523809Y-89754761D01*
X119380952Y-89802380D01*
X119285714Y-89802380D01*
X120095238Y-88897619D02*
X120142857Y-88850000D01*
X120238095Y-88802380D01*
X120476190Y-88802380D01*
X120571428Y-88850000D01*
X120619047Y-88897619D01*
X120666666Y-88992857D01*
X120666666Y-89088095D01*
X120619047Y-89230952D01*
X120047619Y-89802380D01*
X120666666Y-89802380D01*
%TO.C,D1*%
X169261904Y-96452380D02*
X169261904Y-95452380D01*
X169500000Y-95452380D01*
X169642857Y-95500000D01*
X169738095Y-95595238D01*
X169785714Y-95690476D01*
X169833333Y-95880952D01*
X169833333Y-96023809D01*
X169785714Y-96214285D01*
X169738095Y-96309523D01*
X169642857Y-96404761D01*
X169500000Y-96452380D01*
X169261904Y-96452380D01*
X170785714Y-96452380D02*
X170214285Y-96452380D01*
X170500000Y-96452380D02*
X170500000Y-95452380D01*
X170404761Y-95595238D01*
X170309523Y-95690476D01*
X170214285Y-95738095D01*
%TO.C,U1*%
X120152380Y-68911904D02*
X120961904Y-68911904D01*
X121057142Y-68864285D01*
X121104761Y-68816666D01*
X121152380Y-68721428D01*
X121152380Y-68530952D01*
X121104761Y-68435714D01*
X121057142Y-68388095D01*
X120961904Y-68340476D01*
X120152380Y-68340476D01*
X121152380Y-67340476D02*
X121152380Y-67911904D01*
X121152380Y-67626190D02*
X120152380Y-67626190D01*
X120295238Y-67721428D01*
X120390476Y-67816666D01*
X120438095Y-67911904D01*
%TO.C,C5*%
X159783333Y-67177142D02*
X159735714Y-67224761D01*
X159592857Y-67272380D01*
X159497619Y-67272380D01*
X159354761Y-67224761D01*
X159259523Y-67129523D01*
X159211904Y-67034285D01*
X159164285Y-66843809D01*
X159164285Y-66700952D01*
X159211904Y-66510476D01*
X159259523Y-66415238D01*
X159354761Y-66320000D01*
X159497619Y-66272380D01*
X159592857Y-66272380D01*
X159735714Y-66320000D01*
X159783333Y-66367619D01*
X160688095Y-66272380D02*
X160211904Y-66272380D01*
X160164285Y-66748571D01*
X160211904Y-66700952D01*
X160307142Y-66653333D01*
X160545238Y-66653333D01*
X160640476Y-66700952D01*
X160688095Y-66748571D01*
X160735714Y-66843809D01*
X160735714Y-67081904D01*
X160688095Y-67177142D01*
X160640476Y-67224761D01*
X160545238Y-67272380D01*
X160307142Y-67272380D01*
X160211904Y-67224761D01*
X160164285Y-67177142D01*
%TO.C,P1*%
X137777380Y-60188095D02*
X136777380Y-60188095D01*
X136777380Y-59807142D01*
X136825000Y-59711904D01*
X136872619Y-59664285D01*
X136967857Y-59616666D01*
X137110714Y-59616666D01*
X137205952Y-59664285D01*
X137253571Y-59711904D01*
X137301190Y-59807142D01*
X137301190Y-60188095D01*
X137777380Y-58664285D02*
X137777380Y-59235714D01*
X137777380Y-58950000D02*
X136777380Y-58950000D01*
X136920238Y-59045238D01*
X137015476Y-59140476D01*
X137063095Y-59235714D01*
%TO.C,kibuzzard-6314E056*%
G36*
X150521417Y-60287592D02*
G01*
X173026028Y-60287592D01*
X171878583Y-64112408D01*
X149373972Y-64112408D01*
X149670517Y-63123925D01*
X151182875Y-63123925D01*
X151201925Y-63289025D01*
X151286062Y-63377131D01*
X151462275Y-63406500D01*
X151625788Y-63385069D01*
X151709925Y-63320775D01*
X151740087Y-63236638D01*
X151744850Y-63127100D01*
X151744850Y-62768325D01*
X152144900Y-62768325D01*
X152243325Y-62761975D01*
X152366797Y-63054428D01*
X152449347Y-63245986D01*
X152490975Y-63336650D01*
X152549712Y-63398563D01*
X152651313Y-63428725D01*
X152814825Y-63384275D01*
X152962463Y-63292200D01*
X153011675Y-63181075D01*
X152997021Y-63130275D01*
X153186300Y-63130275D01*
X153191063Y-63241400D01*
X153218050Y-63323950D01*
X153301394Y-63388244D01*
X153462525Y-63409675D01*
X153625244Y-63389038D01*
X153707000Y-63327125D01*
X153737163Y-63242987D01*
X153741925Y-63133450D01*
X153741925Y-62566713D01*
X153948300Y-62566713D01*
X153968938Y-62762769D01*
X154030850Y-62941363D01*
X154125306Y-63094159D01*
X154243575Y-63212825D01*
X154428078Y-63331006D01*
X154617519Y-63401914D01*
X154811900Y-63425550D01*
X155054788Y-63393800D01*
X155256400Y-63298550D01*
X155387369Y-63189806D01*
X155409642Y-63130275D01*
X155637400Y-63130275D01*
X155642163Y-63239813D01*
X155669150Y-63323950D01*
X155752494Y-63388244D01*
X155913625Y-63409675D01*
X156076344Y-63389038D01*
X156158100Y-63327125D01*
X156188263Y-63242987D01*
X156193025Y-63133450D01*
X156193025Y-62888975D01*
X156290656Y-62974303D01*
X156424800Y-63103288D01*
X156557356Y-63231478D01*
X156650225Y-63314425D01*
X156681975Y-63336650D01*
X156875650Y-63428725D01*
X157066150Y-63295375D01*
X157164575Y-63089000D01*
X157143938Y-63022325D01*
X157043925Y-62920725D01*
X156633167Y-62581000D01*
X157291575Y-62581000D01*
X157313800Y-62785964D01*
X157380475Y-62977522D01*
X157491600Y-63155675D01*
X157613441Y-63275928D01*
X157775763Y-63369988D01*
X157971422Y-63430709D01*
X158193275Y-63450950D01*
X158489145Y-63433289D01*
X158700481Y-63380306D01*
X158827283Y-63292002D01*
X158852182Y-63219175D01*
X159158475Y-63219175D01*
X159215625Y-63355700D01*
X159434700Y-63409675D01*
X159596625Y-63389038D01*
X159682350Y-63327125D01*
X159712513Y-63242987D01*
X159717275Y-63133450D01*
X159717275Y-62466700D01*
X159791888Y-62320650D01*
X159952225Y-62260325D01*
X160090338Y-62285725D01*
X160199875Y-62311125D01*
X160374500Y-62190475D01*
X160410695Y-62057125D01*
X160530075Y-62057125D01*
X160576113Y-62241275D01*
X160692000Y-62295250D01*
X160822175Y-62285725D01*
X160822175Y-62755625D01*
X160841225Y-62969761D01*
X160898375Y-63138036D01*
X160993625Y-63260450D01*
X161125564Y-63343353D01*
X161292781Y-63393094D01*
X161495275Y-63409675D01*
X161601638Y-63404912D01*
X161685775Y-63377925D01*
X161752450Y-63294581D01*
X161774675Y-63133450D01*
X161701650Y-62920725D01*
X161617513Y-62890563D01*
X161503213Y-62885800D01*
X161401613Y-62847700D01*
X161374625Y-62723875D01*
X161374625Y-62285725D01*
X161581000Y-62298425D01*
X161690538Y-62293663D01*
X161774675Y-62266675D01*
X161987400Y-62266675D01*
X162008534Y-62499641D01*
X162071934Y-62715938D01*
X162177602Y-62915566D01*
X162325538Y-63098525D01*
X162504230Y-63251322D01*
X162702172Y-63360463D01*
X162919362Y-63425947D01*
X163155800Y-63447775D01*
X163393219Y-63422375D01*
X163614411Y-63346175D01*
X163819375Y-63219175D01*
X163933675Y-63295375D01*
X164022575Y-63355700D01*
X164206725Y-63441425D01*
X164304356Y-63406500D01*
X164400400Y-63301725D01*
X164495650Y-63084237D01*
X164381350Y-62920725D01*
X164171800Y-62777850D01*
X164237064Y-62603931D01*
X164245054Y-62568300D01*
X164670275Y-62568300D01*
X164693735Y-62789315D01*
X164764114Y-62986694D01*
X164881413Y-63160438D01*
X165034342Y-63295375D01*
X165211613Y-63376338D01*
X165413225Y-63403325D01*
X165648175Y-63333475D01*
X165733900Y-63263625D01*
X165791050Y-63200125D01*
X165822800Y-63330300D01*
X165904556Y-63387450D01*
X166060925Y-63406500D01*
X166220469Y-63385863D01*
X166305400Y-63323950D01*
X166335563Y-63242987D01*
X166340325Y-63136625D01*
X166340325Y-62581000D01*
X166546700Y-62581000D01*
X166568925Y-62785964D01*
X166635600Y-62977522D01*
X166746725Y-63155675D01*
X166868566Y-63275928D01*
X167030888Y-63369988D01*
X167226547Y-63430709D01*
X167448400Y-63450950D01*
X167744270Y-63433289D01*
X167955606Y-63380306D01*
X168082408Y-63292002D01*
X168124675Y-63168375D01*
X168116599Y-63139800D01*
X168365975Y-63139800D01*
X168426300Y-63260450D01*
X168617329Y-63359228D01*
X168813650Y-63418494D01*
X169015263Y-63438250D01*
X169208056Y-63427314D01*
X169377918Y-63394506D01*
X169524850Y-63339825D01*
X169697888Y-63166788D01*
X169744322Y-63038597D01*
X169759800Y-62885800D01*
X169744322Y-62734591D01*
X169697888Y-62611162D01*
X169543900Y-62457175D01*
X169343875Y-62377800D01*
X169137500Y-62336525D01*
X168975575Y-62291281D01*
X168921600Y-62212700D01*
X169108925Y-62142850D01*
X169332762Y-62190475D01*
X169474050Y-62238100D01*
X169616925Y-62126975D01*
X169642971Y-62057125D01*
X169886800Y-62057125D01*
X169932837Y-62241275D01*
X170048725Y-62295250D01*
X170178900Y-62285725D01*
X170178900Y-62755625D01*
X170197950Y-62969761D01*
X170255100Y-63138036D01*
X170350350Y-63260450D01*
X170482289Y-63343353D01*
X170649506Y-63393094D01*
X170852000Y-63409675D01*
X170958362Y-63404912D01*
X171042500Y-63377925D01*
X171109175Y-63294581D01*
X171131400Y-63133450D01*
X171058375Y-62920725D01*
X170974238Y-62890563D01*
X170859938Y-62885800D01*
X170758338Y-62847700D01*
X170731350Y-62723875D01*
X170731350Y-62285725D01*
X170937725Y-62298425D01*
X171047263Y-62293663D01*
X171131400Y-62266675D01*
X171195694Y-62183331D01*
X171217125Y-62022200D01*
X171196487Y-61859481D01*
X171134575Y-61777725D01*
X171050438Y-61747562D01*
X170942488Y-61742800D01*
X170731350Y-61755500D01*
X170731350Y-61444350D01*
X170715475Y-61282425D01*
X170630544Y-61194319D01*
X170458300Y-61164950D01*
X170295581Y-61184794D01*
X170213825Y-61244325D01*
X170183663Y-61320525D01*
X170178900Y-61428475D01*
X170178900Y-61755500D01*
X170074125Y-61742800D01*
X169947125Y-61784075D01*
X169902675Y-61868212D01*
X169886800Y-62057125D01*
X169642971Y-62057125D01*
X169686775Y-61939650D01*
X169575650Y-61812650D01*
X169340700Y-61731687D01*
X169112100Y-61704700D01*
X168864069Y-61724766D01*
X168671156Y-61784964D01*
X168533361Y-61885294D01*
X168450684Y-62025756D01*
X168423125Y-62206350D01*
X168438206Y-62363116D01*
X168483450Y-62496863D01*
X168635850Y-62676250D01*
X168833494Y-62773881D01*
X169032725Y-62825475D01*
X169192269Y-62861988D01*
X169245450Y-62914375D01*
X169197031Y-62971525D01*
X169051775Y-62990575D01*
X168810475Y-62912788D01*
X168599338Y-62835000D01*
X168486625Y-62888975D01*
X168396137Y-63035819D01*
X168365975Y-63139800D01*
X168116599Y-63139800D01*
X168083400Y-63022325D01*
X167908775Y-62879450D01*
X167781775Y-62914375D01*
X167746850Y-62927075D01*
X167622231Y-62955650D01*
X167457925Y-62965175D01*
X167248375Y-62904850D01*
X167143600Y-62755625D01*
X167896075Y-62755625D01*
X168110388Y-62661962D01*
X168183016Y-62542900D01*
X168207225Y-62373038D01*
X168180238Y-62185316D01*
X168099275Y-62012675D01*
X167981403Y-61876547D01*
X167834162Y-61779312D01*
X167657553Y-61720972D01*
X167451575Y-61701525D01*
X167207629Y-61728160D01*
X166992258Y-61808064D01*
X166805463Y-61941238D01*
X166661706Y-62118861D01*
X166575451Y-62332115D01*
X166546700Y-62581000D01*
X166340325Y-62581000D01*
X166340325Y-62012675D01*
X166335563Y-61903137D01*
X166308575Y-61819000D01*
X166225231Y-61754706D01*
X166064100Y-61733275D01*
X165901381Y-61753913D01*
X165819625Y-61815825D01*
X165789463Y-61899962D01*
X165784700Y-62009500D01*
X165784700Y-62571475D01*
X165706912Y-62771500D01*
X165503713Y-62847700D01*
X165303688Y-62774675D01*
X165229075Y-62571475D01*
X165229075Y-62015850D01*
X165210025Y-61853925D01*
X165125888Y-61763437D01*
X164949675Y-61733275D01*
X164786163Y-61754706D01*
X164702025Y-61819000D01*
X164675038Y-61901550D01*
X164670275Y-62012675D01*
X164670275Y-62568300D01*
X164245054Y-62568300D01*
X164276222Y-62429306D01*
X164289275Y-62253975D01*
X164267645Y-62004936D01*
X164202756Y-61778519D01*
X164094608Y-61574723D01*
X163943200Y-61393550D01*
X163762423Y-61244920D01*
X163566169Y-61138756D01*
X163354436Y-61075058D01*
X163127225Y-61053825D01*
X162911325Y-61076050D01*
X162701775Y-61142725D01*
X162507306Y-61248294D01*
X162336650Y-61387200D01*
X162193775Y-61561428D01*
X162082650Y-61772963D01*
X162011212Y-62011484D01*
X161987400Y-62266675D01*
X161774675Y-62266675D01*
X161838969Y-62183331D01*
X161860400Y-62022200D01*
X161839762Y-61859481D01*
X161777850Y-61777725D01*
X161693713Y-61747562D01*
X161585763Y-61742800D01*
X161374625Y-61755500D01*
X161374625Y-61444350D01*
X161358750Y-61282425D01*
X161273819Y-61194319D01*
X161101575Y-61164950D01*
X160938856Y-61184794D01*
X160857100Y-61244325D01*
X160826938Y-61320525D01*
X160822175Y-61428475D01*
X160822175Y-61755500D01*
X160717400Y-61742800D01*
X160590400Y-61784075D01*
X160545950Y-61868212D01*
X160530075Y-62057125D01*
X160410695Y-62057125D01*
X160434825Y-61968225D01*
X160395138Y-61820587D01*
X160295125Y-61755500D01*
X160184000Y-61728512D01*
X160058588Y-61720575D01*
X159885550Y-61774550D01*
X159756963Y-61860275D01*
X159710925Y-61914250D01*
X159676000Y-61809475D01*
X159592656Y-61754706D01*
X159437875Y-61736450D01*
X159274363Y-61757881D01*
X159190225Y-61822175D01*
X159163238Y-61903137D01*
X159158475Y-62012675D01*
X159158475Y-63219175D01*
X158852182Y-63219175D01*
X158869550Y-63168375D01*
X158828275Y-63022325D01*
X158653650Y-62879450D01*
X158526650Y-62914375D01*
X158491725Y-62927075D01*
X158367106Y-62955650D01*
X158202800Y-62965175D01*
X157993250Y-62904850D01*
X157888475Y-62755625D01*
X158640950Y-62755625D01*
X158855263Y-62661962D01*
X158927891Y-62542900D01*
X158952100Y-62373038D01*
X158925113Y-62185316D01*
X158844150Y-62012675D01*
X158726278Y-61876547D01*
X158579038Y-61779312D01*
X158402428Y-61720972D01*
X158196450Y-61701525D01*
X157952504Y-61728160D01*
X157737133Y-61808064D01*
X157550338Y-61941238D01*
X157406581Y-62118861D01*
X157320326Y-62332115D01*
X157291575Y-62581000D01*
X156633167Y-62581000D01*
X156621650Y-62571475D01*
X156935975Y-62304775D01*
X157053450Y-62133325D01*
X156950263Y-61931712D01*
X156767700Y-61803125D01*
X156577200Y-61888850D01*
X156539100Y-61914250D01*
X156366063Y-62076175D01*
X156193025Y-62238100D01*
X156193025Y-61231625D01*
X156189850Y-61142725D01*
X156132700Y-61003025D01*
X155916800Y-60949050D01*
X155753288Y-60970481D01*
X155669150Y-61034775D01*
X155642163Y-61118913D01*
X155637400Y-61228450D01*
X155637400Y-63130275D01*
X155409642Y-63130275D01*
X155431025Y-63073125D01*
X155358000Y-62908025D01*
X155231794Y-62781819D01*
X155126225Y-62739750D01*
X154984938Y-62798487D01*
X154797612Y-62857225D01*
X154608700Y-62782612D01*
X154519800Y-62573063D01*
X154611875Y-62361925D01*
X154810312Y-62285725D01*
X154973825Y-62339700D01*
X155145275Y-62409550D01*
X155252431Y-62365894D01*
X155364350Y-62234925D01*
X155431025Y-62052363D01*
X155348475Y-61907900D01*
X155259575Y-61847575D01*
X155208775Y-61815825D01*
X155040500Y-61750737D01*
X154805550Y-61717400D01*
X154610464Y-61740683D01*
X154423139Y-61810533D01*
X154243575Y-61926950D01*
X154125306Y-62044822D01*
X154030850Y-62195238D01*
X153968938Y-62371450D01*
X153948300Y-62566713D01*
X153741925Y-62566713D01*
X153741925Y-62022200D01*
X153738750Y-61930125D01*
X153681600Y-61793600D01*
X153465700Y-61739625D01*
X153464113Y-61739825D01*
X153302188Y-61760262D01*
X153218050Y-61822175D01*
X153191063Y-61906312D01*
X153186300Y-62015850D01*
X153186300Y-63130275D01*
X152997021Y-63130275D01*
X152964050Y-63015975D01*
X152875150Y-62813833D01*
X152803183Y-62647675D01*
X152748150Y-62517500D01*
X152880442Y-62348872D01*
X152959817Y-62152022D01*
X152986275Y-61926950D01*
X152965637Y-61730100D01*
X152903725Y-61552300D01*
X152810062Y-61401487D01*
X152694175Y-61285600D01*
X152609333Y-61231625D01*
X153186300Y-61231625D01*
X153191063Y-61341162D01*
X153219638Y-61425300D01*
X153303775Y-61491975D01*
X153464113Y-61511025D01*
X153624450Y-61491975D01*
X153708588Y-61426887D01*
X153737163Y-61344337D01*
X153741925Y-61234800D01*
X153737163Y-61125262D01*
X153707000Y-61041125D01*
X153626038Y-60976831D01*
X153465700Y-60955400D01*
X153302188Y-60976831D01*
X153218050Y-61041125D01*
X153191063Y-61122087D01*
X153186300Y-61231625D01*
X152609333Y-61231625D01*
X152516728Y-61172711D01*
X152335753Y-61104978D01*
X152151250Y-61082400D01*
X151465450Y-61082400D01*
X151301937Y-61103831D01*
X151217800Y-61168125D01*
X151187637Y-61252262D01*
X151182875Y-61361800D01*
X151182875Y-63123925D01*
X149670517Y-63123925D01*
X150521417Y-60287592D01*
G37*
G36*
X163351459Y-61659456D02*
G01*
X163544738Y-61790425D01*
X163646161Y-61919542D01*
X163707015Y-62074058D01*
X163727300Y-62253975D01*
X163707192Y-62433539D01*
X163646867Y-62586997D01*
X163546325Y-62714350D01*
X163354238Y-62842938D01*
X163139925Y-62885800D01*
X162925216Y-62841747D01*
X162731937Y-62709587D01*
X162630514Y-62580294D01*
X162569660Y-62427365D01*
X162549375Y-62250800D01*
X162569483Y-62074235D01*
X162629808Y-61921306D01*
X162730350Y-61792013D01*
X162922437Y-61659853D01*
X163136750Y-61615800D01*
X163351459Y-61659456D01*
G37*
G36*
X152335400Y-61715812D02*
G01*
X152427475Y-61926950D01*
X152335400Y-62136500D01*
X152151250Y-62206350D01*
X151744850Y-62206350D01*
X151744850Y-61644375D01*
X152144900Y-61644375D01*
X152335400Y-61715812D01*
G37*
G36*
X158347263Y-62247625D02*
G01*
X158402825Y-62365100D01*
X158282175Y-62466700D01*
X157882125Y-62466700D01*
X157983725Y-62287313D01*
X158188513Y-62203175D01*
X158347263Y-62247625D01*
G37*
G36*
X167602388Y-62247625D02*
G01*
X167657950Y-62365100D01*
X167537300Y-62466700D01*
X167137250Y-62466700D01*
X167238850Y-62287313D01*
X167443638Y-62203175D01*
X167602388Y-62247625D01*
G37*
%TO.C,kibuzzard-6314E025*%
G36*
X161798874Y-100605433D02*
G01*
X165717866Y-100605433D01*
X165001126Y-102994567D01*
X161082134Y-102994567D01*
X161619741Y-101202544D01*
X162228822Y-101202544D01*
X162259778Y-101301604D01*
X162829373Y-102457304D01*
X162898509Y-102530568D01*
X162996537Y-102558428D01*
X163017174Y-102558428D01*
X163113139Y-102530568D01*
X163182274Y-102457304D01*
X163638967Y-101530681D01*
X163844738Y-101530681D01*
X163909746Y-101658633D01*
X164034603Y-101730864D01*
X164179066Y-101666888D01*
X164205894Y-101642123D01*
X164205894Y-102378882D01*
X164208990Y-102454209D01*
X164228596Y-102510962D01*
X164283801Y-102551205D01*
X164387504Y-102564619D01*
X164493788Y-102550689D01*
X164548477Y-102508898D01*
X164568083Y-102454209D01*
X164571178Y-102383009D01*
X164571178Y-101233501D01*
X164560859Y-101124122D01*
X164531967Y-101079751D01*
X164478309Y-101056018D01*
X164380281Y-101045699D01*
X164263679Y-101099357D01*
X164257488Y-101103484D01*
X163919033Y-101408919D01*
X163844738Y-101530681D01*
X163638967Y-101530681D01*
X163751869Y-101301604D01*
X163782826Y-101202544D01*
X163752385Y-101133409D01*
X163661064Y-101070464D01*
X163539303Y-101035381D01*
X163448498Y-101091102D01*
X163419606Y-101153014D01*
X163006856Y-102056937D01*
X162984412Y-102009213D01*
X162933592Y-101899060D01*
X162866521Y-101753308D01*
X162795321Y-101598784D01*
X162724380Y-101444261D01*
X162658082Y-101298509D01*
X162606230Y-101185002D01*
X162578627Y-101127217D01*
X162544576Y-101072528D01*
X162509492Y-101043636D01*
X162454802Y-101035381D01*
X162350583Y-101070464D01*
X162259262Y-101133409D01*
X162228822Y-101202544D01*
X161619741Y-101202544D01*
X161798874Y-100605433D01*
G37*
%TO.C,kibuzzard-6314E01A*%
G36*
X111277277Y-73458817D02*
G01*
X111325260Y-73521245D01*
X111341254Y-73609471D01*
X111324228Y-73698212D01*
X111273150Y-73762188D01*
X111136942Y-73813782D01*
X111002799Y-73763220D01*
X110953269Y-73700276D01*
X110936759Y-73612566D01*
X110952753Y-73524599D01*
X111000735Y-73460881D01*
X111139006Y-73409287D01*
X111277277Y-73458817D01*
G37*
G36*
X106921733Y-73029557D02*
G01*
X106955785Y-73101788D01*
X106949594Y-73176083D01*
X106850534Y-73219422D01*
X106723613Y-73248314D01*
X106685434Y-73366980D01*
X106722581Y-73485646D01*
X106834024Y-73514538D01*
X106949594Y-73531048D01*
X106987773Y-73572323D01*
X106999124Y-73650746D01*
X106966620Y-73755997D01*
X106869107Y-73791081D01*
X106530652Y-73791081D01*
X106530652Y-73008919D01*
X106819577Y-73008919D01*
X106921733Y-73029557D01*
G37*
G36*
X105617119Y-74601138D02*
G01*
X105499957Y-74583759D01*
X105385062Y-74554979D01*
X105273541Y-74515076D01*
X105166469Y-74464435D01*
X105064875Y-74403542D01*
X104969740Y-74332985D01*
X104881978Y-74253442D01*
X104802436Y-74165681D01*
X104731879Y-74070545D01*
X104671990Y-73970627D01*
X106165369Y-73970627D01*
X106177751Y-74077942D01*
X106232441Y-74136759D01*
X106346979Y-74156364D01*
X106889745Y-74156364D01*
X107013914Y-74140886D01*
X107125012Y-74094452D01*
X107223041Y-74017061D01*
X107299743Y-73916740D01*
X107346866Y-73801514D01*
X107364407Y-73671383D01*
X107357415Y-73611534D01*
X107498551Y-73611534D01*
X107513800Y-73755194D01*
X107559547Y-73883491D01*
X107635791Y-73996424D01*
X107735195Y-74084133D01*
X107850421Y-74136759D01*
X107981469Y-74154301D01*
X108134186Y-74108898D01*
X108189907Y-74063496D01*
X108227055Y-74022221D01*
X108247692Y-74106834D01*
X108300834Y-74143982D01*
X108402474Y-74156364D01*
X108506177Y-74142950D01*
X108561382Y-74102707D01*
X108580988Y-74050081D01*
X108584084Y-73980946D01*
X108584084Y-73279271D01*
X108697590Y-73279271D01*
X108727514Y-73398968D01*
X108802841Y-73434052D01*
X108887455Y-73427861D01*
X108887455Y-73733296D01*
X108899837Y-73872484D01*
X108936985Y-73981863D01*
X108998897Y-74061432D01*
X109084658Y-74115319D01*
X109193349Y-74147651D01*
X109324970Y-74158428D01*
X109394106Y-74155333D01*
X109448795Y-74137791D01*
X109492134Y-74083617D01*
X109506580Y-73978882D01*
X109459114Y-73840611D01*
X109404424Y-73821005D01*
X109330129Y-73817909D01*
X109264089Y-73793144D01*
X109246547Y-73712658D01*
X109246547Y-73427861D01*
X109380691Y-73436116D01*
X109451891Y-73433020D01*
X109506580Y-73415478D01*
X109548371Y-73361305D01*
X109559282Y-73279271D01*
X109624214Y-73279271D01*
X109654138Y-73398968D01*
X109729465Y-73434052D01*
X109814079Y-73427861D01*
X109814079Y-73733296D01*
X109826461Y-73872484D01*
X109863609Y-73981863D01*
X109925521Y-74061432D01*
X110011282Y-74115319D01*
X110119972Y-74147651D01*
X110251594Y-74158428D01*
X110320729Y-74155333D01*
X110375419Y-74137791D01*
X110418757Y-74083617D01*
X110433204Y-73978882D01*
X110385737Y-73840611D01*
X110331048Y-73821005D01*
X110256753Y-73817909D01*
X110190713Y-73793144D01*
X110173171Y-73712658D01*
X110173171Y-73615662D01*
X110571475Y-73615662D01*
X110593402Y-73772249D01*
X110659184Y-73911810D01*
X110756955Y-74026864D01*
X110874846Y-74109930D01*
X111004862Y-74160234D01*
X111139006Y-74177002D01*
X111272892Y-74161266D01*
X111402134Y-74114058D01*
X111519510Y-74033571D01*
X111569531Y-73974754D01*
X111840681Y-73974754D01*
X111843777Y-74045954D01*
X111861319Y-74100643D01*
X111915492Y-74142434D01*
X112020228Y-74156364D01*
X112125995Y-74142434D01*
X112179136Y-74100643D01*
X112198742Y-74048018D01*
X112201837Y-73976818D01*
X112201837Y-73611534D01*
X112252399Y-73481518D01*
X112384479Y-73431988D01*
X112514496Y-73479454D01*
X112562994Y-73611534D01*
X112562994Y-73974754D01*
X112575376Y-74080006D01*
X112629034Y-74137275D01*
X112744604Y-74156364D01*
X112850887Y-74142434D01*
X112905576Y-74100643D01*
X112923118Y-74048018D01*
X112926214Y-73976818D01*
X113060357Y-73976818D01*
X113114015Y-74106834D01*
X113241968Y-74162556D01*
X114048894Y-74162556D01*
X114176846Y-74137791D01*
X114221217Y-74084133D01*
X114234631Y-73979914D01*
X114222249Y-73874663D01*
X114173751Y-73814814D01*
X114053021Y-73795208D01*
X113675355Y-73795208D01*
X113675355Y-73784889D01*
X113726949Y-73764252D01*
X113854901Y-73694600D01*
X113999364Y-73580578D01*
X114066436Y-73506283D01*
X114123189Y-73411351D01*
X114161884Y-73303004D01*
X114174783Y-73188466D01*
X114157585Y-73046640D01*
X114105991Y-72915592D01*
X114020001Y-72795321D01*
X113906380Y-72699586D01*
X113771893Y-72642145D01*
X113616538Y-72622998D01*
X113461298Y-72641916D01*
X113327155Y-72698669D01*
X113214107Y-72793257D01*
X113128691Y-72911694D01*
X113077441Y-73039990D01*
X113060357Y-73178147D01*
X113070676Y-73283398D01*
X113126913Y-73342215D01*
X113241968Y-73361821D01*
X113347219Y-73349438D01*
X113402940Y-73312291D01*
X113422546Y-73260697D01*
X113425641Y-73192593D01*
X113425641Y-73180211D01*
X113433896Y-73132744D01*
X113488586Y-73036780D01*
X113603124Y-72988282D01*
X113706311Y-73006856D01*
X113761001Y-73047099D01*
X113792989Y-73102820D01*
X113807435Y-73155446D01*
X113788087Y-73245735D01*
X113730044Y-73330864D01*
X113644657Y-73409029D01*
X113543275Y-73478422D01*
X113433896Y-73543947D01*
X113324517Y-73610503D01*
X113223136Y-73684282D01*
X113137748Y-73771475D01*
X113079705Y-73869761D01*
X113060357Y-73976818D01*
X112926214Y-73976818D01*
X112926214Y-73613598D01*
X112910965Y-73469938D01*
X112865218Y-73341642D01*
X112788974Y-73228709D01*
X112689800Y-73140999D01*
X112575262Y-73088374D01*
X112445360Y-73070832D01*
X112290579Y-73118298D01*
X112234857Y-73161637D01*
X112197710Y-73202912D01*
X112177073Y-73118298D01*
X112123931Y-73082698D01*
X112022291Y-73070832D01*
X111917556Y-73083730D01*
X111863383Y-73122426D01*
X111843777Y-73175051D01*
X111840681Y-73244187D01*
X111840681Y-73974754D01*
X111569531Y-73974754D01*
X111617796Y-73918001D01*
X111684352Y-73775345D01*
X111706537Y-73613598D01*
X111687505Y-73458244D01*
X111630408Y-73322380D01*
X111535246Y-73206007D01*
X111415319Y-73117152D01*
X111283927Y-73063838D01*
X111141070Y-73046067D01*
X110997983Y-73063953D01*
X110865903Y-73117610D01*
X110744830Y-73207039D01*
X110648522Y-73323985D01*
X110590737Y-73460193D01*
X110571475Y-73615662D01*
X110173171Y-73615662D01*
X110173171Y-73427861D01*
X110307315Y-73436116D01*
X110378514Y-73433020D01*
X110433204Y-73415478D01*
X110474995Y-73361305D01*
X110488925Y-73256569D01*
X110475511Y-73150802D01*
X110435267Y-73097661D01*
X110380578Y-73078055D01*
X110310411Y-73074959D01*
X110173171Y-73083214D01*
X110173171Y-72880967D01*
X110162852Y-72775716D01*
X110107647Y-72718447D01*
X109995689Y-72699357D01*
X109889922Y-72712255D01*
X109836780Y-72750951D01*
X109817174Y-72800481D01*
X109814079Y-72870648D01*
X109814079Y-73083214D01*
X109745975Y-73074959D01*
X109663425Y-73101788D01*
X109634532Y-73156477D01*
X109624214Y-73279271D01*
X109559282Y-73279271D01*
X109562301Y-73256569D01*
X109548887Y-73150802D01*
X109508644Y-73097661D01*
X109453954Y-73078055D01*
X109383787Y-73074959D01*
X109246547Y-73083214D01*
X109246547Y-72880967D01*
X109236229Y-72775716D01*
X109181023Y-72718447D01*
X109069065Y-72699357D01*
X108963298Y-72712255D01*
X108910156Y-72750951D01*
X108890551Y-72800481D01*
X108887455Y-72870648D01*
X108887455Y-73083214D01*
X108819351Y-73074959D01*
X108736801Y-73101788D01*
X108707909Y-73156477D01*
X108697590Y-73279271D01*
X108584084Y-73279271D01*
X108584084Y-73250378D01*
X108580988Y-73179179D01*
X108563446Y-73124489D01*
X108509273Y-73082698D01*
X108404537Y-73068768D01*
X108298770Y-73082182D01*
X108245629Y-73122426D01*
X108226023Y-73177115D01*
X108222927Y-73248314D01*
X108222927Y-73613598D01*
X108172366Y-73743614D01*
X108040286Y-73793144D01*
X107910269Y-73745678D01*
X107861771Y-73613598D01*
X107861771Y-73252442D01*
X107849389Y-73147191D01*
X107794699Y-73088374D01*
X107680161Y-73068768D01*
X107573878Y-73082698D01*
X107519189Y-73124489D01*
X107501647Y-73178147D01*
X107498551Y-73250378D01*
X107498551Y-73611534D01*
X107357415Y-73611534D01*
X107350878Y-73555584D01*
X107310291Y-73447581D01*
X107242646Y-73347374D01*
X107301463Y-73228193D01*
X107321069Y-73097661D01*
X107306164Y-72978422D01*
X107261449Y-72871107D01*
X107186925Y-72775716D01*
X107094744Y-72702338D01*
X106988805Y-72658311D01*
X106869107Y-72643636D01*
X106349042Y-72643636D01*
X106242759Y-72657566D01*
X106188070Y-72699357D01*
X106168464Y-72753014D01*
X106165369Y-72825246D01*
X106165369Y-73970627D01*
X104671990Y-73970627D01*
X104670986Y-73968952D01*
X104620345Y-73861880D01*
X104580442Y-73750359D01*
X104551662Y-73635464D01*
X104534283Y-73518302D01*
X104528471Y-73400000D01*
X104534283Y-73281698D01*
X104551662Y-73164536D01*
X104580442Y-73049641D01*
X104620345Y-72938120D01*
X104670986Y-72831048D01*
X104731879Y-72729455D01*
X104802436Y-72634319D01*
X104881978Y-72546558D01*
X104969740Y-72467015D01*
X105064875Y-72396458D01*
X105166469Y-72335565D01*
X105273541Y-72284924D01*
X105385062Y-72245021D01*
X105499957Y-72216241D01*
X105617119Y-72198862D01*
X105735421Y-72193050D01*
X114664579Y-72193050D01*
X114782881Y-72198862D01*
X114900043Y-72216241D01*
X115014938Y-72245021D01*
X115126459Y-72284924D01*
X115233531Y-72335565D01*
X115335125Y-72396458D01*
X115430260Y-72467015D01*
X115518022Y-72546558D01*
X115597564Y-72634319D01*
X115668121Y-72729455D01*
X115729014Y-72831048D01*
X115779655Y-72938120D01*
X115819558Y-73049641D01*
X115848338Y-73164536D01*
X115865717Y-73281698D01*
X115871529Y-73400000D01*
X115865717Y-73518302D01*
X115848338Y-73635464D01*
X115819558Y-73750359D01*
X115779655Y-73861880D01*
X115729014Y-73968952D01*
X115668121Y-74070545D01*
X115597564Y-74165681D01*
X115518022Y-74253442D01*
X115430260Y-74332985D01*
X115335125Y-74403542D01*
X115233531Y-74464435D01*
X115126459Y-74515076D01*
X115014938Y-74554979D01*
X114900043Y-74583759D01*
X114782881Y-74601138D01*
X114664579Y-74606950D01*
X105735421Y-74606950D01*
X105617119Y-74601138D01*
G37*
%TO.C,kibuzzard-6314E009*%
G36*
X100111513Y-73448498D02*
G01*
X100159495Y-73510927D01*
X100175489Y-73599152D01*
X100158463Y-73687893D01*
X100107386Y-73751869D01*
X99971178Y-73803463D01*
X99837034Y-73752901D01*
X99787504Y-73689957D01*
X99770994Y-73602248D01*
X99786988Y-73514280D01*
X99834971Y-73450562D01*
X99973242Y-73398968D01*
X100111513Y-73448498D01*
G37*
G36*
X95755969Y-73019238D02*
G01*
X95790021Y-73091469D01*
X95783829Y-73165764D01*
X95684769Y-73209103D01*
X95557849Y-73237996D01*
X95519669Y-73356661D01*
X95556817Y-73475327D01*
X95668259Y-73504219D01*
X95783829Y-73520729D01*
X95822009Y-73562004D01*
X95833359Y-73640427D01*
X95800855Y-73745678D01*
X95703343Y-73780762D01*
X95364888Y-73780762D01*
X95364888Y-72998601D01*
X95653813Y-72998601D01*
X95755969Y-73019238D01*
G37*
G36*
X94452366Y-74590869D02*
G01*
X94336205Y-74573638D01*
X94222293Y-74545105D01*
X94111726Y-74505543D01*
X94005568Y-74455334D01*
X93904844Y-74394962D01*
X93810522Y-74325008D01*
X93723511Y-74246146D01*
X93644648Y-74159135D01*
X93574694Y-74064813D01*
X93514322Y-73964088D01*
X93512534Y-73960308D01*
X94999604Y-73960308D01*
X95011987Y-74067623D01*
X95066676Y-74126440D01*
X95181214Y-74146046D01*
X95723981Y-74146046D01*
X95848150Y-74130567D01*
X95959248Y-74084133D01*
X96057276Y-74006743D01*
X96133979Y-73906421D01*
X96181101Y-73791195D01*
X96198643Y-73661064D01*
X96191651Y-73601216D01*
X96332787Y-73601216D01*
X96348036Y-73744876D01*
X96393782Y-73873172D01*
X96470026Y-73986105D01*
X96569430Y-74073814D01*
X96684656Y-74126440D01*
X96815704Y-74143982D01*
X96968422Y-74098579D01*
X97024143Y-74053177D01*
X97061291Y-74011902D01*
X97081928Y-74096516D01*
X97135070Y-74133663D01*
X97236709Y-74146046D01*
X97340413Y-74132631D01*
X97395618Y-74092388D01*
X97415224Y-74039762D01*
X97418319Y-73970627D01*
X97418319Y-73268952D01*
X97531826Y-73268952D01*
X97561750Y-73388649D01*
X97637077Y-73423733D01*
X97721691Y-73417542D01*
X97721691Y-73722977D01*
X97734073Y-73862165D01*
X97771221Y-73971544D01*
X97833133Y-74051113D01*
X97918893Y-74105000D01*
X98027584Y-74137332D01*
X98159206Y-74148109D01*
X98228341Y-74145014D01*
X98283031Y-74127472D01*
X98326369Y-74073298D01*
X98340816Y-73968563D01*
X98293349Y-73830292D01*
X98238660Y-73810686D01*
X98164365Y-73807591D01*
X98098325Y-73782826D01*
X98080783Y-73702339D01*
X98080783Y-73417542D01*
X98214927Y-73425797D01*
X98286126Y-73422701D01*
X98340816Y-73405159D01*
X98382607Y-73350986D01*
X98393518Y-73268952D01*
X98458449Y-73268952D01*
X98488374Y-73388649D01*
X98563701Y-73423733D01*
X98648314Y-73417542D01*
X98648314Y-73722977D01*
X98660697Y-73862165D01*
X98697844Y-73971544D01*
X98759757Y-74051113D01*
X98845517Y-74105000D01*
X98954208Y-74137332D01*
X99085829Y-74148109D01*
X99154965Y-74145014D01*
X99209654Y-74127472D01*
X99252993Y-74073298D01*
X99267439Y-73968563D01*
X99219973Y-73830292D01*
X99165284Y-73810686D01*
X99090989Y-73807591D01*
X99024949Y-73782826D01*
X99007407Y-73702339D01*
X99007407Y-73605343D01*
X99405711Y-73605343D01*
X99427638Y-73761930D01*
X99493420Y-73901491D01*
X99591190Y-74016545D01*
X99709082Y-74099611D01*
X99839098Y-74149915D01*
X99973242Y-74166683D01*
X100107128Y-74150947D01*
X100236370Y-74103739D01*
X100353746Y-74023253D01*
X100403767Y-73964436D01*
X100674917Y-73964436D01*
X100678012Y-74035635D01*
X100695554Y-74090324D01*
X100749728Y-74132115D01*
X100854463Y-74146046D01*
X100960230Y-74132115D01*
X101013372Y-74090324D01*
X101032977Y-74037699D01*
X101036073Y-73966499D01*
X101036073Y-73601216D01*
X101086635Y-73471199D01*
X101218715Y-73421669D01*
X101348731Y-73469136D01*
X101397229Y-73601216D01*
X101397229Y-73964436D01*
X101409612Y-74069687D01*
X101463269Y-74126956D01*
X101578839Y-74146046D01*
X101685122Y-74132115D01*
X101739812Y-74090324D01*
X101757354Y-74037699D01*
X101760449Y-73966499D01*
X101760449Y-73603279D01*
X101745201Y-73459619D01*
X101699454Y-73331323D01*
X101623210Y-73218390D01*
X101524035Y-73130681D01*
X101497084Y-73118298D01*
X101873956Y-73118298D01*
X101938964Y-73246251D01*
X102063821Y-73318482D01*
X102208283Y-73254506D01*
X102235112Y-73229741D01*
X102235112Y-73966499D01*
X102238208Y-74041826D01*
X102257813Y-74098579D01*
X102313018Y-74138822D01*
X102416722Y-74152237D01*
X102523005Y-74138307D01*
X102577694Y-74096516D01*
X102597300Y-74041826D01*
X102600396Y-73970627D01*
X102600396Y-72821118D01*
X102590077Y-72711739D01*
X102561184Y-72667369D01*
X102507527Y-72643636D01*
X102409499Y-72633317D01*
X102292897Y-72686974D01*
X102286706Y-72691102D01*
X101948251Y-72996537D01*
X101873956Y-73118298D01*
X101497084Y-73118298D01*
X101409497Y-73078055D01*
X101279596Y-73060513D01*
X101124814Y-73107979D01*
X101069093Y-73151318D01*
X101031946Y-73192593D01*
X101011308Y-73107979D01*
X100958167Y-73072380D01*
X100856527Y-73060513D01*
X100751792Y-73073412D01*
X100697618Y-73112107D01*
X100678012Y-73164732D01*
X100674917Y-73233868D01*
X100674917Y-73964436D01*
X100403767Y-73964436D01*
X100452032Y-73907683D01*
X100518588Y-73765026D01*
X100540773Y-73603279D01*
X100521741Y-73447925D01*
X100464644Y-73312061D01*
X100369482Y-73195689D01*
X100249555Y-73106833D01*
X100118163Y-73053519D01*
X99975306Y-73035748D01*
X99832219Y-73053634D01*
X99700139Y-73107291D01*
X99579066Y-73196721D01*
X99482757Y-73313666D01*
X99424972Y-73449874D01*
X99405711Y-73605343D01*
X99007407Y-73605343D01*
X99007407Y-73417542D01*
X99141551Y-73425797D01*
X99212750Y-73422701D01*
X99267439Y-73405159D01*
X99309230Y-73350986D01*
X99323161Y-73246251D01*
X99309746Y-73140483D01*
X99269503Y-73087342D01*
X99214814Y-73067736D01*
X99144646Y-73064641D01*
X99007407Y-73072896D01*
X99007407Y-72870648D01*
X98997088Y-72765397D01*
X98941883Y-72708128D01*
X98829924Y-72689038D01*
X98724157Y-72701937D01*
X98671016Y-72740632D01*
X98651410Y-72790162D01*
X98648314Y-72860329D01*
X98648314Y-73072896D01*
X98580211Y-73064641D01*
X98497661Y-73091469D01*
X98468768Y-73146159D01*
X98458449Y-73268952D01*
X98393518Y-73268952D01*
X98396537Y-73246251D01*
X98383122Y-73140483D01*
X98342879Y-73087342D01*
X98288190Y-73067736D01*
X98218022Y-73064641D01*
X98080783Y-73072896D01*
X98080783Y-72870648D01*
X98070464Y-72765397D01*
X98015259Y-72708128D01*
X97903301Y-72689038D01*
X97797533Y-72701937D01*
X97744392Y-72740632D01*
X97724786Y-72790162D01*
X97721691Y-72860329D01*
X97721691Y-73072896D01*
X97653587Y-73064641D01*
X97571037Y-73091469D01*
X97542144Y-73146159D01*
X97531826Y-73268952D01*
X97418319Y-73268952D01*
X97418319Y-73240059D01*
X97415224Y-73168860D01*
X97397682Y-73114171D01*
X97343508Y-73072380D01*
X97238773Y-73058449D01*
X97133006Y-73071864D01*
X97079864Y-73112107D01*
X97060259Y-73166796D01*
X97057163Y-73237996D01*
X97057163Y-73603279D01*
X97006601Y-73733296D01*
X96874521Y-73782826D01*
X96744505Y-73735359D01*
X96696007Y-73603279D01*
X96696007Y-73242123D01*
X96683624Y-73136872D01*
X96628935Y-73078055D01*
X96514397Y-73058449D01*
X96408114Y-73072380D01*
X96353424Y-73114171D01*
X96335882Y-73167828D01*
X96332787Y-73240059D01*
X96332787Y-73601216D01*
X96191651Y-73601216D01*
X96185114Y-73545265D01*
X96144527Y-73437262D01*
X96076882Y-73337056D01*
X96135699Y-73217874D01*
X96155304Y-73087342D01*
X96140400Y-72968103D01*
X96095685Y-72860788D01*
X96021161Y-72765397D01*
X95928980Y-72692019D01*
X95823041Y-72647992D01*
X95703343Y-72633317D01*
X95183278Y-72633317D01*
X95076995Y-72647247D01*
X95022306Y-72689038D01*
X95002700Y-72742696D01*
X94999604Y-72814927D01*
X94999604Y-73960308D01*
X93512534Y-73960308D01*
X93464114Y-73857931D01*
X93424552Y-73747364D01*
X93396018Y-73633451D01*
X93378788Y-73517290D01*
X93373025Y-73400000D01*
X93378788Y-73282710D01*
X93396018Y-73166549D01*
X93424552Y-73052636D01*
X93464114Y-72942069D01*
X93514322Y-72835912D01*
X93574694Y-72735187D01*
X93644648Y-72640865D01*
X93723511Y-72553854D01*
X93810522Y-72474992D01*
X93904844Y-72405038D01*
X94005568Y-72344666D01*
X94111726Y-72294457D01*
X94222293Y-72254895D01*
X94336205Y-72226362D01*
X94452366Y-72209131D01*
X94569656Y-72203369D01*
X103030344Y-72203369D01*
X103147634Y-72209131D01*
X103263795Y-72226362D01*
X103377707Y-72254895D01*
X103488274Y-72294457D01*
X103594432Y-72344666D01*
X103695156Y-72405038D01*
X103789478Y-72474992D01*
X103876489Y-72553854D01*
X103955352Y-72640865D01*
X104025306Y-72735187D01*
X104085678Y-72835912D01*
X104135886Y-72942069D01*
X104175448Y-73052636D01*
X104203982Y-73166549D01*
X104221212Y-73282710D01*
X104226975Y-73400000D01*
X104221212Y-73517290D01*
X104203982Y-73633451D01*
X104175448Y-73747364D01*
X104135886Y-73857931D01*
X104085678Y-73964088D01*
X104025306Y-74064813D01*
X103955352Y-74159135D01*
X103876489Y-74246146D01*
X103789478Y-74325008D01*
X103695156Y-74394962D01*
X103594432Y-74455334D01*
X103488274Y-74505543D01*
X103377707Y-74545105D01*
X103263795Y-74573638D01*
X103147634Y-74590869D01*
X103030344Y-74596631D01*
X94569656Y-74596631D01*
X94452366Y-74590869D01*
G37*
%TO.C,kibuzzard-6314DFF6*%
G36*
X175192353Y-85609399D02*
G01*
X175227935Y-85684630D01*
X175150672Y-85749694D01*
X174894482Y-85749694D01*
X174959546Y-85634815D01*
X175090691Y-85580934D01*
X175192353Y-85609399D01*
G37*
G36*
X176376722Y-85664297D02*
G01*
X176423995Y-85725803D01*
X176439753Y-85812724D01*
X176422979Y-85900154D01*
X176372656Y-85963185D01*
X176238461Y-86014016D01*
X176106300Y-85964202D01*
X176057502Y-85902188D01*
X176041236Y-85815774D01*
X176056993Y-85729107D01*
X176104267Y-85666330D01*
X176240494Y-85615499D01*
X176376722Y-85664297D01*
G37*
G36*
X172601632Y-81816759D02*
G01*
X177798368Y-81816759D01*
X177798368Y-89383241D01*
X172601632Y-89383241D01*
X172601632Y-87614861D01*
X173031580Y-87614861D01*
X173061634Y-87711036D01*
X173614639Y-88833075D01*
X173681761Y-88904204D01*
X173776934Y-88931253D01*
X173796971Y-88931253D01*
X173890140Y-88904204D01*
X173957262Y-88833075D01*
X174066382Y-88611672D01*
X174620467Y-88611672D01*
X174672562Y-88726882D01*
X174690594Y-88748922D01*
X174748700Y-88810033D01*
X174838864Y-88873148D01*
X174975111Y-88930251D01*
X175061769Y-88947533D01*
X175153435Y-88953293D01*
X175273876Y-88941494D01*
X175389420Y-88906096D01*
X175500065Y-88847100D01*
X175576204Y-88781731D01*
X175636313Y-88693822D01*
X175666325Y-88611672D01*
X175788590Y-88611672D01*
X175840684Y-88726882D01*
X175858717Y-88748922D01*
X175916823Y-88810033D01*
X176006986Y-88873148D01*
X176143234Y-88930251D01*
X176229891Y-88947533D01*
X176321558Y-88953293D01*
X176441999Y-88941494D01*
X176557542Y-88906096D01*
X176668188Y-88847100D01*
X176744326Y-88781731D01*
X176804435Y-88693822D01*
X176843506Y-88586877D01*
X176856530Y-88464405D01*
X176843757Y-88344437D01*
X176805437Y-88245006D01*
X176748083Y-88169118D01*
X176678206Y-88119779D01*
X176598561Y-88086468D01*
X176511904Y-88058668D01*
X176345602Y-88021600D01*
X176218370Y-87975517D01*
X176167278Y-87886354D01*
X176210356Y-87800198D01*
X176318553Y-87769142D01*
X176425747Y-87795189D01*
X176456804Y-87821236D01*
X176479846Y-87841273D01*
X176584035Y-87881345D01*
X176655164Y-87856300D01*
X176724290Y-87781163D01*
X176772377Y-87670963D01*
X176710264Y-87572785D01*
X176660173Y-87534716D01*
X176522924Y-87471601D01*
X176418484Y-87448309D01*
X176303525Y-87440544D01*
X176240494Y-87447092D01*
X176163159Y-87455126D01*
X176043942Y-87498873D01*
X175945875Y-87571783D01*
X175872965Y-87664284D01*
X175829219Y-87766804D01*
X175814637Y-87879342D01*
X175827410Y-87998308D01*
X175865730Y-88098740D01*
X175923084Y-88177634D01*
X175992961Y-88231983D01*
X176072105Y-88271304D01*
X176157259Y-88305115D01*
X176321558Y-88350197D01*
X176448789Y-88395279D01*
X176499882Y-88472419D01*
X176453297Y-88586627D01*
X176313543Y-88624696D01*
X176217369Y-88593640D01*
X176137223Y-88528521D01*
X176048061Y-88453385D01*
X175980939Y-88428339D01*
X175874746Y-88476427D01*
X175788590Y-88611672D01*
X175666325Y-88611672D01*
X175675384Y-88586877D01*
X175688407Y-88464405D01*
X175675634Y-88344437D01*
X175637315Y-88245006D01*
X175579960Y-88169118D01*
X175510083Y-88119779D01*
X175430439Y-88086468D01*
X175343781Y-88058668D01*
X175177479Y-88021600D01*
X175050248Y-87975517D01*
X174999155Y-87886354D01*
X175042233Y-87800198D01*
X175150430Y-87769142D01*
X175257625Y-87795189D01*
X175288681Y-87821236D01*
X175311723Y-87841273D01*
X175415912Y-87881345D01*
X175487042Y-87856300D01*
X175556167Y-87781163D01*
X175604255Y-87670963D01*
X175542142Y-87572785D01*
X175492051Y-87534716D01*
X175354801Y-87471601D01*
X175250362Y-87448309D01*
X175135403Y-87440544D01*
X175093741Y-87444872D01*
X174995036Y-87455126D01*
X174875820Y-87498873D01*
X174777753Y-87571783D01*
X174704842Y-87664284D01*
X174661096Y-87766804D01*
X174646514Y-87879342D01*
X174659287Y-87998308D01*
X174697607Y-88098740D01*
X174754961Y-88177634D01*
X174824838Y-88231983D01*
X174903982Y-88271304D01*
X174989137Y-88305115D01*
X175153435Y-88350197D01*
X175280667Y-88395279D01*
X175331759Y-88472419D01*
X175285175Y-88586627D01*
X175145421Y-88624696D01*
X175049246Y-88593640D01*
X174969100Y-88528521D01*
X174879938Y-88453385D01*
X174812816Y-88428339D01*
X174706623Y-88476427D01*
X174620467Y-88611672D01*
X174066382Y-88611672D01*
X174510267Y-87711036D01*
X174540321Y-87614861D01*
X174510768Y-87547739D01*
X174422107Y-87486628D01*
X174303892Y-87452566D01*
X174215732Y-87506665D01*
X174203177Y-87533568D01*
X174187681Y-87566774D01*
X173786952Y-88444368D01*
X173715823Y-88291090D01*
X173650705Y-88149583D01*
X173581579Y-87999560D01*
X173512704Y-87849538D01*
X173448337Y-87708030D01*
X173397996Y-87597830D01*
X173371197Y-87541728D01*
X173338137Y-87488632D01*
X173304075Y-87460581D01*
X173250978Y-87452566D01*
X173149795Y-87486628D01*
X173061134Y-87547739D01*
X173031580Y-87614861D01*
X172601632Y-87614861D01*
X172601632Y-86172610D01*
X173082855Y-86172610D01*
X173085905Y-86243774D01*
X173105221Y-86298672D01*
X173158086Y-86339845D01*
X173259748Y-86353569D01*
X173364461Y-86339845D01*
X173418342Y-86298672D01*
X173437658Y-86245807D01*
X173440707Y-86174643D01*
X173440707Y-85505704D01*
X173497526Y-85579804D01*
X173571739Y-85677400D01*
X173663348Y-85798492D01*
X173772353Y-85943078D01*
X173898754Y-86111161D01*
X174042550Y-86302738D01*
X174093381Y-86341370D01*
X174203177Y-86353569D01*
X174307889Y-86339845D01*
X174361770Y-86298672D01*
X174381086Y-86245807D01*
X174384136Y-86174643D01*
X174384136Y-85822891D01*
X174516297Y-85822891D01*
X174530530Y-85954148D01*
X174573228Y-86076821D01*
X174644392Y-86190909D01*
X174722418Y-86267919D01*
X174826368Y-86328154D01*
X174951667Y-86367040D01*
X175093741Y-86380002D01*
X175283214Y-86368692D01*
X175418553Y-86334762D01*
X175499756Y-86278212D01*
X175526823Y-86199042D01*
X175500391Y-86105513D01*
X175388562Y-86014016D01*
X175307232Y-86036382D01*
X175284866Y-86044515D01*
X175205061Y-86062814D01*
X175099840Y-86068914D01*
X174965646Y-86030282D01*
X174898549Y-85934720D01*
X175380429Y-85934720D01*
X175517674Y-85874739D01*
X175551782Y-85818824D01*
X175681350Y-85818824D01*
X175702954Y-85973097D01*
X175767763Y-86110596D01*
X175864089Y-86223950D01*
X175980238Y-86305788D01*
X176108333Y-86355348D01*
X176240494Y-86371869D01*
X176372402Y-86356365D01*
X176499734Y-86309854D01*
X176615375Y-86230558D01*
X176712209Y-86116696D01*
X176777781Y-85976147D01*
X176799638Y-85816791D01*
X176780887Y-85663732D01*
X176724634Y-85529877D01*
X176630879Y-85415224D01*
X176512724Y-85327681D01*
X176383274Y-85275155D01*
X176242528Y-85257647D01*
X176101556Y-85275268D01*
X175971427Y-85328133D01*
X175852143Y-85416240D01*
X175757258Y-85531458D01*
X175700327Y-85665653D01*
X175681350Y-85818824D01*
X175551782Y-85818824D01*
X175564184Y-85798492D01*
X175579688Y-85689713D01*
X175562405Y-85569497D01*
X175510557Y-85458939D01*
X175458420Y-85398726D01*
X175435073Y-85371763D01*
X175340781Y-85309495D01*
X175227681Y-85272134D01*
X175095774Y-85259680D01*
X174939552Y-85276737D01*
X174801630Y-85327907D01*
X174682007Y-85413191D01*
X174589946Y-85526940D01*
X174534710Y-85663506D01*
X174516297Y-85822891D01*
X174384136Y-85822891D01*
X174384136Y-85046189D01*
X174371937Y-84942493D01*
X174346521Y-84899795D01*
X174293656Y-84875396D01*
X174200127Y-84865229D01*
X174103547Y-84877429D01*
X174045600Y-84925210D01*
X174026284Y-85038056D01*
X174026284Y-85725295D01*
X173970256Y-85651928D01*
X173898415Y-85556535D01*
X173820834Y-85452610D01*
X173810759Y-85439115D01*
X173707289Y-85299667D01*
X173588005Y-85138193D01*
X173452907Y-84954692D01*
X173406142Y-84901828D01*
X173356328Y-84876412D01*
X173259748Y-84865229D01*
X173160119Y-84877429D01*
X173102171Y-84925210D01*
X173082855Y-85038056D01*
X173082855Y-86172610D01*
X172601632Y-86172610D01*
X172601632Y-82415934D01*
X173032481Y-82415934D01*
X173063438Y-82514994D01*
X173633033Y-83670694D01*
X173702168Y-83743957D01*
X173800196Y-83771818D01*
X173820834Y-83771818D01*
X173916798Y-83743957D01*
X173985934Y-83670694D01*
X174311417Y-83010294D01*
X174669035Y-83010294D01*
X174682708Y-83165334D01*
X174723725Y-83308506D01*
X174785895Y-83433363D01*
X174863028Y-83533455D01*
X174953059Y-83614457D01*
X175053925Y-83682045D01*
X175158660Y-83734155D01*
X175260300Y-83768722D01*
X175359876Y-83788070D01*
X175458420Y-83794519D01*
X175558253Y-83786264D01*
X175661699Y-83761499D01*
X175801002Y-83707842D01*
X175872201Y-83664503D01*
X175937210Y-83612909D01*
X175965070Y-83540678D01*
X175919668Y-83425108D01*
X175847952Y-83338431D01*
X175781396Y-83309538D01*
X175682336Y-83350813D01*
X175645189Y-83377642D01*
X175563671Y-83410662D01*
X175442941Y-83427172D01*
X175309314Y-83404471D01*
X175180845Y-83336367D01*
X175075594Y-83206351D01*
X175044638Y-83118383D01*
X175034319Y-83019581D01*
X175035289Y-83010294D01*
X176070321Y-83010294D01*
X176083994Y-83165334D01*
X176125011Y-83308506D01*
X176187181Y-83433363D01*
X176264314Y-83533455D01*
X176354345Y-83614457D01*
X176455211Y-83682045D01*
X176559946Y-83734155D01*
X176661586Y-83768722D01*
X176761162Y-83788070D01*
X176859706Y-83794519D01*
X176959540Y-83786264D01*
X177062985Y-83761499D01*
X177202288Y-83707842D01*
X177273488Y-83664503D01*
X177338496Y-83612909D01*
X177366356Y-83540678D01*
X177320954Y-83425108D01*
X177249239Y-83338431D01*
X177182683Y-83309538D01*
X177083623Y-83350813D01*
X177046475Y-83377642D01*
X176964957Y-83410662D01*
X176844228Y-83427172D01*
X176710600Y-83404471D01*
X176582131Y-83336367D01*
X176476880Y-83206351D01*
X176445924Y-83118383D01*
X176435605Y-83019581D01*
X176445924Y-82920779D01*
X176476880Y-82832812D01*
X176580068Y-82704859D01*
X176711116Y-82635208D01*
X176844228Y-82611991D01*
X176974244Y-82629532D01*
X177075368Y-82682158D01*
X177180619Y-82727561D01*
X177248723Y-82699700D01*
X177325081Y-82616118D01*
X177368420Y-82501580D01*
X177314763Y-82403552D01*
X177256978Y-82366404D01*
X177207448Y-82337512D01*
X177055762Y-82276631D01*
X176956444Y-82254188D01*
X176858674Y-82246707D01*
X176722696Y-82259089D01*
X176587176Y-82296237D01*
X176452115Y-82358149D01*
X176350733Y-82422899D01*
X176261218Y-82501580D01*
X176185118Y-82598576D01*
X176123979Y-82718274D01*
X176083736Y-82856803D01*
X176070321Y-83010294D01*
X175035289Y-83010294D01*
X175044638Y-82920779D01*
X175075594Y-82832812D01*
X175178781Y-82704859D01*
X175309830Y-82635208D01*
X175442941Y-82611991D01*
X175572958Y-82629532D01*
X175674081Y-82682158D01*
X175779333Y-82727561D01*
X175847436Y-82699700D01*
X175923795Y-82616118D01*
X175967134Y-82501580D01*
X175913476Y-82403552D01*
X175855691Y-82366404D01*
X175806161Y-82337512D01*
X175654476Y-82276631D01*
X175555158Y-82254188D01*
X175457388Y-82246707D01*
X175321409Y-82259089D01*
X175185890Y-82296237D01*
X175050829Y-82358149D01*
X174949447Y-82422899D01*
X174859932Y-82501580D01*
X174783831Y-82598576D01*
X174722693Y-82718274D01*
X174682450Y-82856803D01*
X174669035Y-83010294D01*
X174311417Y-83010294D01*
X174555529Y-82514994D01*
X174586485Y-82415934D01*
X174556045Y-82346799D01*
X174464724Y-82283854D01*
X174342963Y-82248771D01*
X174252158Y-82304492D01*
X174223265Y-82366404D01*
X173810515Y-83270327D01*
X173788072Y-83222603D01*
X173737252Y-83112450D01*
X173670180Y-82966698D01*
X173598981Y-82812174D01*
X173528039Y-82657651D01*
X173461741Y-82511899D01*
X173409890Y-82398392D01*
X173382287Y-82340607D01*
X173348235Y-82285918D01*
X173313151Y-82257026D01*
X173258462Y-82248771D01*
X173154243Y-82283854D01*
X173062922Y-82346799D01*
X173032481Y-82415934D01*
X172601632Y-82415934D01*
X172601632Y-81816759D01*
G37*
%TO.C,kibuzzard-6314DFD9*%
G36*
X124535735Y-92053412D02*
G01*
X124649988Y-92130832D01*
X124709943Y-92207157D01*
X124745916Y-92298497D01*
X124757907Y-92404852D01*
X124746020Y-92510998D01*
X124710360Y-92601712D01*
X124650927Y-92676994D01*
X124537377Y-92753007D01*
X124410690Y-92778344D01*
X124283768Y-92752303D01*
X124169515Y-92674179D01*
X124088576Y-92554295D01*
X124061597Y-92402975D01*
X124088342Y-92251654D01*
X124168577Y-92131770D01*
X124282126Y-92053646D01*
X124408813Y-92027605D01*
X124535735Y-92053412D01*
G37*
G36*
X123200954Y-93504642D02*
G01*
X123088007Y-93496310D01*
X122975605Y-93482447D01*
X122864018Y-93463085D01*
X122753516Y-93438271D01*
X122644365Y-93408064D01*
X122536827Y-93372539D01*
X122431162Y-93331779D01*
X122327624Y-93285884D01*
X122226463Y-93234964D01*
X122127922Y-93179141D01*
X122032239Y-93118550D01*
X121939644Y-93053338D01*
X121850361Y-92983661D01*
X121764604Y-92909686D01*
X121682581Y-92831593D01*
X121604487Y-92749569D01*
X121530513Y-92663812D01*
X121460836Y-92574529D01*
X121395623Y-92481934D01*
X121351566Y-92412359D01*
X123729395Y-92412359D01*
X123741887Y-92550073D01*
X123779366Y-92677933D01*
X123841830Y-92795940D01*
X123929279Y-92904093D01*
X124034558Y-92994416D01*
X124150512Y-93058933D01*
X124277141Y-93097643D01*
X124414444Y-93110546D01*
X124551454Y-93097467D01*
X124677203Y-93058229D01*
X124791690Y-92992833D01*
X124894917Y-92901278D01*
X124980313Y-92791130D01*
X125041311Y-92669956D01*
X125063263Y-92590659D01*
X125212104Y-92590659D01*
X125225972Y-92721309D01*
X125267575Y-92837986D01*
X125336914Y-92940691D01*
X125427316Y-93020457D01*
X125532106Y-93068317D01*
X125651286Y-93084270D01*
X125790173Y-93042980D01*
X125840848Y-93001689D01*
X125874631Y-92964152D01*
X125893400Y-93041103D01*
X125941728Y-93074886D01*
X126034163Y-93086147D01*
X126128475Y-93073948D01*
X126178680Y-93037349D01*
X126196510Y-92989489D01*
X126199326Y-92926615D01*
X126199326Y-92288487D01*
X126302552Y-92288487D01*
X126329767Y-92397344D01*
X126398272Y-92429251D01*
X126475222Y-92423620D01*
X126475222Y-92701393D01*
X126486483Y-92827976D01*
X126520267Y-92927449D01*
X126576572Y-92999812D01*
X126654565Y-93048819D01*
X126753413Y-93078223D01*
X126873114Y-93088024D01*
X126935988Y-93085209D01*
X126985725Y-93069255D01*
X127025139Y-93019988D01*
X127038276Y-92924738D01*
X126995109Y-92798989D01*
X126945372Y-92781159D01*
X126877806Y-92778344D01*
X126817747Y-92755822D01*
X126801794Y-92682625D01*
X126801794Y-92423620D01*
X126923789Y-92431127D01*
X126988540Y-92428312D01*
X127038276Y-92412359D01*
X127076283Y-92363092D01*
X127088951Y-92267842D01*
X127076752Y-92171653D01*
X127040153Y-92123324D01*
X126990417Y-92105494D01*
X126926604Y-92102679D01*
X126801794Y-92110186D01*
X126801794Y-91926255D01*
X126792409Y-91830536D01*
X126742204Y-91778454D01*
X126640385Y-91761093D01*
X126544196Y-91772823D01*
X126495868Y-91808014D01*
X126478038Y-91853058D01*
X126475222Y-91916871D01*
X126475222Y-92110186D01*
X126413286Y-92102679D01*
X126338212Y-92127078D01*
X126311937Y-92176815D01*
X126302552Y-92288487D01*
X126199326Y-92288487D01*
X126199326Y-92262211D01*
X126196510Y-92197460D01*
X126180557Y-92147723D01*
X126131290Y-92109717D01*
X126036040Y-92097049D01*
X126035148Y-92097162D01*
X125939852Y-92109248D01*
X125891523Y-92145847D01*
X125873693Y-92195583D01*
X125870877Y-92260334D01*
X125870877Y-92592536D01*
X125824895Y-92710778D01*
X125704776Y-92755822D01*
X125586535Y-92712654D01*
X125542429Y-92592536D01*
X125542429Y-92264088D01*
X125531168Y-92168369D01*
X125481432Y-92114879D01*
X125377267Y-92097049D01*
X125280609Y-92109717D01*
X125230872Y-92147723D01*
X125214919Y-92196521D01*
X125212104Y-92262211D01*
X125212104Y-92590659D01*
X125063263Y-92590659D01*
X125077909Y-92537756D01*
X125090109Y-92394529D01*
X125077323Y-92251830D01*
X125038965Y-92121213D01*
X124975035Y-92002678D01*
X124885533Y-91896226D01*
X124778670Y-91808366D01*
X124662657Y-91745609D01*
X124537495Y-91707955D01*
X124377799Y-91698016D01*
X124275557Y-91708541D01*
X124151685Y-91747955D01*
X124036728Y-91810360D01*
X123935848Y-91892472D01*
X123851390Y-91995464D01*
X123785700Y-92120509D01*
X123743471Y-92261507D01*
X123729395Y-92412359D01*
X121351566Y-92412359D01*
X121335033Y-92386251D01*
X121279210Y-92287711D01*
X121228290Y-92186550D01*
X121182395Y-92083012D01*
X121141635Y-91977347D01*
X121106109Y-91869809D01*
X121075903Y-91760658D01*
X121051089Y-91650155D01*
X121031727Y-91538569D01*
X121017863Y-91426167D01*
X121009532Y-91313220D01*
X121006753Y-91200000D01*
X121009532Y-91086780D01*
X121017863Y-90973833D01*
X121031727Y-90861431D01*
X121051089Y-90749845D01*
X121075903Y-90639342D01*
X121106109Y-90530191D01*
X121141635Y-90422653D01*
X121182395Y-90316988D01*
X121228290Y-90213450D01*
X121279210Y-90112289D01*
X121335033Y-90013749D01*
X121395623Y-89918066D01*
X121460836Y-89825471D01*
X121530513Y-89736188D01*
X121604487Y-89650431D01*
X121682581Y-89568407D01*
X121764604Y-89490314D01*
X121816365Y-89445664D01*
X123711048Y-89445664D01*
X123720573Y-89525674D01*
X123758673Y-89570441D01*
X123848208Y-89584729D01*
X124213968Y-89584729D01*
X124213968Y-90541039D01*
X124216826Y-90606761D01*
X124233971Y-90656291D01*
X124283501Y-90695344D01*
X124377798Y-90706774D01*
X124473048Y-90695344D01*
X124523531Y-90656291D01*
X124540676Y-90607714D01*
X124543533Y-90542944D01*
X124543533Y-90539134D01*
X125122653Y-90539134D01*
X125172183Y-90659149D01*
X125290293Y-90710584D01*
X126035148Y-90710584D01*
X126153258Y-90687724D01*
X126194216Y-90638194D01*
X126206598Y-90541991D01*
X126195168Y-90444836D01*
X126150401Y-90389591D01*
X126038958Y-90371494D01*
X125690343Y-90371494D01*
X125690343Y-90361969D01*
X125737968Y-90342919D01*
X125856078Y-90278625D01*
X125989428Y-90173374D01*
X126051341Y-90104794D01*
X126103728Y-90017164D01*
X126139447Y-89917151D01*
X126151353Y-89811424D01*
X126135478Y-89680508D01*
X126087853Y-89559541D01*
X126008478Y-89448521D01*
X125903598Y-89360151D01*
X125779455Y-89307128D01*
X125636051Y-89289454D01*
X125492753Y-89306916D01*
X125368928Y-89359304D01*
X125264576Y-89446616D01*
X125185730Y-89555942D01*
X125138423Y-89674370D01*
X125122653Y-89801899D01*
X125132178Y-89899054D01*
X125184090Y-89953346D01*
X125290293Y-89971444D01*
X125387448Y-89960014D01*
X125438883Y-89925724D01*
X125456981Y-89878099D01*
X125459838Y-89815234D01*
X125459838Y-89803804D01*
X125467458Y-89759989D01*
X125517941Y-89671406D01*
X125623668Y-89626639D01*
X125718918Y-89643784D01*
X125769401Y-89680931D01*
X125798928Y-89732366D01*
X125812263Y-89780944D01*
X125794404Y-89864288D01*
X125740826Y-89942869D01*
X125662007Y-90015021D01*
X125568423Y-90079076D01*
X125467458Y-90139560D01*
X125366493Y-90200996D01*
X125272910Y-90269100D01*
X125194091Y-90349586D01*
X125140513Y-90440312D01*
X125122653Y-90539134D01*
X124543533Y-90539134D01*
X124543533Y-89584729D01*
X124907388Y-89584729D01*
X125004543Y-89567584D01*
X125036928Y-89526626D01*
X125046453Y-89447569D01*
X125036928Y-89367559D01*
X124998828Y-89322791D01*
X124909293Y-89308504D01*
X123850113Y-89308504D01*
X123752958Y-89325649D01*
X123720573Y-89366606D01*
X123711048Y-89445664D01*
X121816365Y-89445664D01*
X121850361Y-89416339D01*
X121939644Y-89346662D01*
X122032239Y-89281450D01*
X122127922Y-89220859D01*
X122226463Y-89165036D01*
X122327624Y-89114116D01*
X122431162Y-89068221D01*
X122536827Y-89027461D01*
X122644365Y-88991936D01*
X122753516Y-88961729D01*
X122864018Y-88936915D01*
X122975605Y-88917553D01*
X123088007Y-88903690D01*
X123200954Y-88895358D01*
X123314173Y-88892579D01*
X127485826Y-88892579D01*
X127599046Y-88895358D01*
X127711993Y-88903690D01*
X127824395Y-88917553D01*
X127935982Y-88936915D01*
X128046484Y-88961729D01*
X128155635Y-88991936D01*
X128263173Y-89027461D01*
X128368838Y-89068221D01*
X128472376Y-89114116D01*
X128573537Y-89165036D01*
X128672078Y-89220859D01*
X128767761Y-89281449D01*
X128860355Y-89346662D01*
X128949639Y-89416339D01*
X129035396Y-89490314D01*
X129117419Y-89568407D01*
X129195513Y-89650431D01*
X129269487Y-89736188D01*
X129339164Y-89825471D01*
X129404377Y-89918066D01*
X129464967Y-90013748D01*
X129520790Y-90112289D01*
X129571710Y-90213450D01*
X129617605Y-90316988D01*
X129658365Y-90422653D01*
X129693891Y-90530191D01*
X129724097Y-90639342D01*
X129748911Y-90749844D01*
X129768273Y-90861431D01*
X129782137Y-90973833D01*
X129790468Y-91086780D01*
X129793247Y-91200000D01*
X129790468Y-91313220D01*
X129782137Y-91426167D01*
X129768273Y-91538569D01*
X129748911Y-91650156D01*
X129724097Y-91760658D01*
X129693891Y-91869809D01*
X129658365Y-91977347D01*
X129617605Y-92083012D01*
X129571710Y-92186550D01*
X129520790Y-92287711D01*
X129464967Y-92386252D01*
X129404377Y-92481934D01*
X129339164Y-92574529D01*
X129269487Y-92663812D01*
X129195513Y-92749569D01*
X129117419Y-92831593D01*
X129035396Y-92909686D01*
X128949639Y-92983661D01*
X128860355Y-93053338D01*
X128767761Y-93118551D01*
X128672078Y-93179141D01*
X128573537Y-93234964D01*
X128472376Y-93285884D01*
X128368838Y-93331779D01*
X128263173Y-93372539D01*
X128155635Y-93408064D01*
X128046484Y-93438271D01*
X127935982Y-93463085D01*
X127824395Y-93482447D01*
X127711993Y-93496310D01*
X127599046Y-93504642D01*
X127485826Y-93507421D01*
X123314173Y-93507421D01*
X123200954Y-93504642D01*
G37*
%TO.C,kibuzzard-6314DFD4*%
G36*
X113535735Y-92043887D02*
G01*
X113649988Y-92121307D01*
X113709943Y-92197632D01*
X113745916Y-92288972D01*
X113757907Y-92395327D01*
X113746020Y-92501473D01*
X113710360Y-92592187D01*
X113650927Y-92667469D01*
X113537378Y-92743482D01*
X113410690Y-92768819D01*
X113283769Y-92742778D01*
X113169516Y-92664654D01*
X113088577Y-92544770D01*
X113061597Y-92393450D01*
X113088342Y-92242129D01*
X113168577Y-92122245D01*
X113282126Y-92044121D01*
X113408814Y-92018080D01*
X113535735Y-92043887D01*
G37*
G36*
X112201421Y-93495128D02*
G01*
X112088940Y-93486831D01*
X111977002Y-93473025D01*
X111865876Y-93453743D01*
X111755830Y-93429031D01*
X111647130Y-93398949D01*
X111540036Y-93363570D01*
X111434807Y-93322979D01*
X111331697Y-93277273D01*
X111230953Y-93226563D01*
X111132819Y-93170971D01*
X111037531Y-93110631D01*
X110945319Y-93045687D01*
X110856404Y-92976298D01*
X110771001Y-92902629D01*
X110689316Y-92824858D01*
X110611545Y-92743173D01*
X110537876Y-92657770D01*
X110468486Y-92568855D01*
X110403543Y-92476643D01*
X110356804Y-92402834D01*
X112729395Y-92402834D01*
X112741888Y-92540548D01*
X112779366Y-92668408D01*
X112841830Y-92786415D01*
X112929279Y-92894568D01*
X113034558Y-92984891D01*
X113150512Y-93049408D01*
X113277141Y-93088118D01*
X113414444Y-93101021D01*
X113551454Y-93087942D01*
X113677203Y-93048704D01*
X113791690Y-92983308D01*
X113894917Y-92891753D01*
X113980314Y-92781605D01*
X114041311Y-92660431D01*
X114063264Y-92581134D01*
X114212104Y-92581134D01*
X114225972Y-92711784D01*
X114267575Y-92828461D01*
X114336915Y-92931166D01*
X114427316Y-93010932D01*
X114532107Y-93058792D01*
X114651286Y-93074745D01*
X114790173Y-93033455D01*
X114840848Y-92992164D01*
X114874631Y-92954627D01*
X114893400Y-93031578D01*
X114941729Y-93065361D01*
X115034163Y-93076622D01*
X115128475Y-93064423D01*
X115178681Y-93027824D01*
X115196511Y-92979964D01*
X115199326Y-92917090D01*
X115199326Y-92278962D01*
X115302552Y-92278962D01*
X115329767Y-92387819D01*
X115398272Y-92419726D01*
X115475222Y-92414095D01*
X115475222Y-92691868D01*
X115486484Y-92818451D01*
X115520267Y-92917924D01*
X115576572Y-92990287D01*
X115654566Y-93039294D01*
X115753413Y-93068698D01*
X115873114Y-93078499D01*
X115935988Y-93075684D01*
X115985725Y-93059730D01*
X116025139Y-93010463D01*
X116038277Y-92915213D01*
X115995109Y-92789464D01*
X115945373Y-92771634D01*
X115877806Y-92768819D01*
X115817747Y-92746297D01*
X115801794Y-92673100D01*
X115801794Y-92414095D01*
X115923789Y-92421602D01*
X115988540Y-92418787D01*
X116038277Y-92402834D01*
X116076283Y-92353567D01*
X116088952Y-92258317D01*
X116076752Y-92162128D01*
X116040153Y-92113799D01*
X115990417Y-92095969D01*
X115926604Y-92093154D01*
X115801794Y-92100661D01*
X115801794Y-91916730D01*
X115792410Y-91821011D01*
X115742204Y-91768929D01*
X115640385Y-91751568D01*
X115544197Y-91763298D01*
X115495868Y-91798489D01*
X115478038Y-91843533D01*
X115475222Y-91907346D01*
X115475222Y-92100661D01*
X115413286Y-92093154D01*
X115338213Y-92117553D01*
X115311937Y-92167290D01*
X115302552Y-92278962D01*
X115199326Y-92278962D01*
X115199326Y-92252686D01*
X115196511Y-92187935D01*
X115180557Y-92138198D01*
X115131290Y-92100192D01*
X115036040Y-92087524D01*
X114939852Y-92099723D01*
X114891523Y-92136322D01*
X114873693Y-92186058D01*
X114870878Y-92250809D01*
X114870878Y-92583011D01*
X114824895Y-92701253D01*
X114704777Y-92746297D01*
X114604619Y-92709731D01*
X114586535Y-92703129D01*
X114542429Y-92583011D01*
X114542429Y-92254563D01*
X114531168Y-92158844D01*
X114481432Y-92105354D01*
X114377267Y-92087524D01*
X114280609Y-92100192D01*
X114230873Y-92138198D01*
X114214919Y-92186996D01*
X114212104Y-92252686D01*
X114212104Y-92581134D01*
X114063264Y-92581134D01*
X114077910Y-92528231D01*
X114090109Y-92385004D01*
X114077323Y-92242305D01*
X114038965Y-92111688D01*
X113975035Y-91993153D01*
X113885533Y-91886701D01*
X113778670Y-91798841D01*
X113662657Y-91736084D01*
X113537495Y-91698430D01*
X113377799Y-91688491D01*
X113275557Y-91699016D01*
X113151685Y-91738430D01*
X113036729Y-91800835D01*
X112935848Y-91882947D01*
X112851390Y-91985939D01*
X112785700Y-92110984D01*
X112743471Y-92251982D01*
X112729395Y-92402834D01*
X110356804Y-92402834D01*
X110343202Y-92381355D01*
X110287610Y-92283221D01*
X110236900Y-92182477D01*
X110191195Y-92079367D01*
X110150603Y-91974138D01*
X110115224Y-91867044D01*
X110085143Y-91758343D01*
X110060431Y-91648297D01*
X110041149Y-91537171D01*
X110027343Y-91425233D01*
X110019046Y-91312752D01*
X110016278Y-91200000D01*
X110019046Y-91087248D01*
X110027343Y-90974767D01*
X110041149Y-90862829D01*
X110060431Y-90751703D01*
X110085143Y-90641657D01*
X110115224Y-90532956D01*
X110150603Y-90425862D01*
X110191195Y-90320633D01*
X110236900Y-90217523D01*
X110287610Y-90116779D01*
X110343202Y-90018645D01*
X110403543Y-89923357D01*
X110468486Y-89831145D01*
X110537876Y-89742230D01*
X110611545Y-89656827D01*
X110689316Y-89575142D01*
X110771001Y-89497371D01*
X110841986Y-89436139D01*
X112711049Y-89436139D01*
X112720574Y-89516149D01*
X112758674Y-89560916D01*
X112848209Y-89575204D01*
X113213969Y-89575204D01*
X113213969Y-90531514D01*
X113216826Y-90597236D01*
X113233971Y-90646766D01*
X113283501Y-90685819D01*
X113377799Y-90697249D01*
X113473049Y-90685819D01*
X113523531Y-90646766D01*
X113540676Y-90598189D01*
X113543534Y-90533419D01*
X113543534Y-89746654D01*
X114103604Y-89746654D01*
X114163611Y-89864764D01*
X114278864Y-89931439D01*
X114412214Y-89872384D01*
X114436979Y-89849524D01*
X114436979Y-90529609D01*
X114439836Y-90599141D01*
X114457934Y-90651529D01*
X114508892Y-90688676D01*
X114604619Y-90701059D01*
X114702726Y-90688200D01*
X114753209Y-90649624D01*
X114771306Y-90599141D01*
X114774164Y-90533419D01*
X114774164Y-89472334D01*
X114764639Y-89371369D01*
X114737969Y-89330411D01*
X114688439Y-89308504D01*
X114597951Y-89298979D01*
X114490319Y-89348509D01*
X114484604Y-89352319D01*
X114172184Y-89634259D01*
X114103604Y-89746654D01*
X113543534Y-89746654D01*
X113543534Y-89575204D01*
X113907389Y-89575204D01*
X114004544Y-89558059D01*
X114036929Y-89517101D01*
X114046454Y-89438044D01*
X114036929Y-89358034D01*
X113998829Y-89313266D01*
X113909294Y-89298979D01*
X112850114Y-89298979D01*
X112752959Y-89316124D01*
X112720574Y-89357081D01*
X112711049Y-89436139D01*
X110841986Y-89436139D01*
X110856404Y-89423702D01*
X110945319Y-89354313D01*
X111037531Y-89289369D01*
X111132819Y-89229029D01*
X111230953Y-89173437D01*
X111331697Y-89122727D01*
X111434807Y-89077021D01*
X111540036Y-89036430D01*
X111647130Y-89001051D01*
X111755830Y-88970969D01*
X111865876Y-88946257D01*
X111977002Y-88926975D01*
X112088940Y-88913169D01*
X112201421Y-88904872D01*
X112314174Y-88902104D01*
X116485827Y-88902104D01*
X116598579Y-88904872D01*
X116711060Y-88913169D01*
X116822998Y-88926975D01*
X116934124Y-88946257D01*
X117044170Y-88970969D01*
X117152870Y-89001051D01*
X117259964Y-89036430D01*
X117365193Y-89077021D01*
X117468304Y-89122727D01*
X117569047Y-89173437D01*
X117667181Y-89229029D01*
X117762469Y-89289369D01*
X117854682Y-89354313D01*
X117943596Y-89423702D01*
X118028999Y-89497371D01*
X118110684Y-89575142D01*
X118188455Y-89656827D01*
X118262124Y-89742230D01*
X118331514Y-89831145D01*
X118396457Y-89923357D01*
X118456798Y-90018645D01*
X118512390Y-90116779D01*
X118563100Y-90217523D01*
X118608806Y-90320633D01*
X118649397Y-90425862D01*
X118684776Y-90532956D01*
X118714857Y-90641657D01*
X118739569Y-90751703D01*
X118758851Y-90862829D01*
X118772657Y-90974767D01*
X118780954Y-91087248D01*
X118783722Y-91200000D01*
X118780954Y-91312752D01*
X118772657Y-91425233D01*
X118758851Y-91537171D01*
X118739569Y-91648297D01*
X118714857Y-91758343D01*
X118684776Y-91867044D01*
X118649397Y-91974138D01*
X118608806Y-92079367D01*
X118563100Y-92182477D01*
X118512390Y-92283221D01*
X118456798Y-92381355D01*
X118396457Y-92476643D01*
X118331514Y-92568855D01*
X118262124Y-92657770D01*
X118188455Y-92743173D01*
X118110684Y-92824858D01*
X118028999Y-92902629D01*
X117943596Y-92976298D01*
X117854682Y-93045687D01*
X117762469Y-93110631D01*
X117667181Y-93170971D01*
X117569047Y-93226563D01*
X117468304Y-93277273D01*
X117365193Y-93322979D01*
X117259964Y-93363570D01*
X117152870Y-93398949D01*
X117044170Y-93429031D01*
X116934124Y-93453743D01*
X116822998Y-93473025D01*
X116711060Y-93486831D01*
X116598579Y-93495128D01*
X116485827Y-93497896D01*
X112314174Y-93497896D01*
X112201421Y-93495128D01*
G37*
%TO.C,kibuzzard-6314DFCF*%
G36*
X86573271Y-93188298D02*
G01*
X86437852Y-93168211D01*
X86305055Y-93134947D01*
X86176157Y-93088826D01*
X86052400Y-93030294D01*
X85934977Y-92959913D01*
X85825018Y-92878362D01*
X85723581Y-92786425D01*
X85631645Y-92684989D01*
X85550093Y-92575029D01*
X85479712Y-92457606D01*
X85421180Y-92333849D01*
X85375060Y-92204952D01*
X85341795Y-92072154D01*
X85321708Y-91936735D01*
X85314991Y-91800000D01*
X85321708Y-91663265D01*
X85341795Y-91527846D01*
X85375060Y-91395048D01*
X85421180Y-91266151D01*
X85479712Y-91142394D01*
X85500179Y-91108247D01*
X87206100Y-91108247D01*
X87241819Y-91222547D01*
X87899044Y-92556047D01*
X87978816Y-92640581D01*
X88091925Y-92672728D01*
X88115737Y-92672728D01*
X88226466Y-92640581D01*
X88306237Y-92556047D01*
X88435922Y-92292919D01*
X89094431Y-92292919D01*
X89156344Y-92429841D01*
X89177775Y-92456034D01*
X89246831Y-92528663D01*
X89353987Y-92603672D01*
X89515912Y-92671537D01*
X89618902Y-92692076D01*
X89727844Y-92698922D01*
X89870983Y-92684899D01*
X90008302Y-92642830D01*
X90139800Y-92572716D01*
X90230287Y-92495027D01*
X90301725Y-92390550D01*
X90337393Y-92292919D01*
X90482700Y-92292919D01*
X90544612Y-92429841D01*
X90566044Y-92456034D01*
X90635100Y-92528663D01*
X90742256Y-92603672D01*
X90904181Y-92671537D01*
X91007170Y-92692076D01*
X91116112Y-92698922D01*
X91259252Y-92684899D01*
X91396571Y-92642830D01*
X91528069Y-92572716D01*
X91618556Y-92495027D01*
X91689994Y-92390550D01*
X91736428Y-92263451D01*
X91751906Y-92117897D01*
X91736726Y-91975320D01*
X91691184Y-91857150D01*
X91623021Y-91766960D01*
X91539975Y-91708322D01*
X91445320Y-91668734D01*
X91342331Y-91635694D01*
X91239342Y-91609798D01*
X91144687Y-91591641D01*
X90993478Y-91536872D01*
X90932756Y-91430906D01*
X90983953Y-91328512D01*
X91112541Y-91291603D01*
X91239937Y-91322559D01*
X91276847Y-91353516D01*
X91304231Y-91377328D01*
X91428056Y-91424953D01*
X91512591Y-91395188D01*
X91594744Y-91305891D01*
X91651894Y-91174922D01*
X91578075Y-91058241D01*
X91518544Y-91012997D01*
X91355428Y-90937988D01*
X91231305Y-90910305D01*
X91094681Y-90901078D01*
X90927861Y-90918408D01*
X90786177Y-90970399D01*
X90669628Y-91057050D01*
X90582977Y-91166984D01*
X90530986Y-91288825D01*
X90513656Y-91422572D01*
X90528837Y-91563959D01*
X90574378Y-91683319D01*
X90642541Y-91777080D01*
X90725587Y-91841672D01*
X90819647Y-91888404D01*
X90920850Y-91928587D01*
X91022053Y-91960437D01*
X91116112Y-91982166D01*
X91267322Y-92035744D01*
X91328044Y-92127422D01*
X91303437Y-92227964D01*
X91229619Y-92288289D01*
X91106587Y-92308397D01*
X90992287Y-92271487D01*
X90897037Y-92194097D01*
X90791072Y-92104800D01*
X90711300Y-92075034D01*
X90585094Y-92132184D01*
X90508298Y-92222374D01*
X90482700Y-92292919D01*
X90337393Y-92292919D01*
X90348159Y-92263451D01*
X90363637Y-92117897D01*
X90348457Y-91975320D01*
X90302916Y-91857150D01*
X90234752Y-91766960D01*
X90151706Y-91708322D01*
X90057052Y-91668734D01*
X89954062Y-91635694D01*
X89851073Y-91609798D01*
X89756419Y-91591641D01*
X89605209Y-91536872D01*
X89544487Y-91430906D01*
X89595684Y-91328512D01*
X89724272Y-91291603D01*
X89851669Y-91322559D01*
X89888578Y-91353516D01*
X89915962Y-91377328D01*
X90039787Y-91424953D01*
X90124322Y-91395188D01*
X90206475Y-91305891D01*
X90263625Y-91174922D01*
X90189806Y-91058241D01*
X90130275Y-91012997D01*
X89967159Y-90937988D01*
X89843037Y-90910305D01*
X89706412Y-90901078D01*
X89539593Y-90918408D01*
X89397908Y-90970399D01*
X89281359Y-91057050D01*
X89194708Y-91166984D01*
X89142718Y-91288825D01*
X89125387Y-91422572D01*
X89140568Y-91563959D01*
X89186109Y-91683319D01*
X89254273Y-91777080D01*
X89337319Y-91841672D01*
X89431378Y-91888404D01*
X89532581Y-91928587D01*
X89633784Y-91960437D01*
X89727844Y-91982166D01*
X89879053Y-92035744D01*
X89939775Y-92127422D01*
X89915169Y-92227964D01*
X89841350Y-92288289D01*
X89718319Y-92308397D01*
X89604019Y-92271487D01*
X89508769Y-92194097D01*
X89402803Y-92104800D01*
X89323031Y-92075034D01*
X89196825Y-92132184D01*
X89120030Y-92222374D01*
X89094431Y-92292919D01*
X88435922Y-92292919D01*
X88963462Y-91222547D01*
X88999181Y-91108247D01*
X88964058Y-91028475D01*
X88858687Y-90955847D01*
X88718194Y-90915366D01*
X88613419Y-90979659D01*
X88580081Y-91051097D01*
X88103831Y-92094084D01*
X88077935Y-92039018D01*
X88019297Y-91911919D01*
X87941906Y-91743743D01*
X87859753Y-91565447D01*
X87777898Y-91387151D01*
X87701400Y-91218975D01*
X87641571Y-91088006D01*
X87609722Y-91021331D01*
X87570431Y-90958228D01*
X87529950Y-90924891D01*
X87466847Y-90915366D01*
X87346594Y-90955847D01*
X87241223Y-91028475D01*
X87206100Y-91108247D01*
X85500179Y-91108247D01*
X85550093Y-91024971D01*
X85631645Y-90915011D01*
X85723581Y-90813575D01*
X85825018Y-90721638D01*
X85934977Y-90640087D01*
X86052400Y-90569706D01*
X86176157Y-90511174D01*
X86305055Y-90465053D01*
X86437852Y-90431789D01*
X86573271Y-90411702D01*
X86710006Y-90404984D01*
X92248000Y-90404984D01*
X93085009Y-93195016D01*
X86710006Y-93195016D01*
X86573271Y-93188298D01*
G37*
%TO.C,kibuzzard-6314DFC9*%
G36*
X86303047Y-78177634D02*
G01*
X86168668Y-78157701D01*
X86036891Y-78124692D01*
X85908983Y-78078926D01*
X85786177Y-78020844D01*
X85669656Y-77951003D01*
X85560541Y-77870078D01*
X85459884Y-77778848D01*
X85368654Y-77678191D01*
X85287729Y-77569076D01*
X85217888Y-77452554D01*
X85159805Y-77329749D01*
X85114039Y-77201841D01*
X85081031Y-77070064D01*
X85075234Y-77030981D01*
X86934826Y-77030981D01*
X86946732Y-77139328D01*
X86994357Y-77200050D01*
X87108657Y-77219100D01*
X87315826Y-77219100D01*
X87315826Y-77409600D01*
X87337257Y-77540569D01*
X87394407Y-77584622D01*
X87502754Y-77597719D01*
X87611101Y-77584622D01*
X87671822Y-77533425D01*
X87681744Y-77473894D01*
X88189744Y-77473894D01*
X88251657Y-77623912D01*
X88399294Y-77688206D01*
X89330363Y-77688206D01*
X89478001Y-77659631D01*
X89529197Y-77597719D01*
X89544676Y-77477466D01*
X89530388Y-77356022D01*
X89474429Y-77286966D01*
X89335126Y-77264344D01*
X88899357Y-77264344D01*
X88899357Y-77252437D01*
X88958888Y-77228625D01*
X89106526Y-77148258D01*
X89273213Y-77016694D01*
X89301160Y-76985737D01*
X89616113Y-76985737D01*
X89628019Y-77088131D01*
X89692908Y-77155997D01*
X89825663Y-77178619D01*
X90470982Y-77178619D01*
X90470982Y-77469131D01*
X90485269Y-77592956D01*
X90516226Y-77640581D01*
X90578138Y-77669156D01*
X90687676Y-77681062D01*
X90803166Y-77666775D01*
X90872222Y-77608434D01*
X90894844Y-77471513D01*
X90894844Y-76147537D01*
X90893517Y-76116581D01*
X91025813Y-76116581D01*
X91061532Y-76230881D01*
X91718757Y-77564381D01*
X91798529Y-77648916D01*
X91911638Y-77681062D01*
X91935451Y-77681062D01*
X92046179Y-77648916D01*
X92125951Y-77564381D01*
X92783176Y-76230881D01*
X92818894Y-76116581D01*
X92783771Y-76036809D01*
X92678401Y-75964181D01*
X92537907Y-75923700D01*
X92433132Y-75987994D01*
X92399794Y-76059431D01*
X91923544Y-77102419D01*
X91897648Y-77047352D01*
X91839010Y-76920253D01*
X91761619Y-76752077D01*
X91679466Y-76573781D01*
X91597611Y-76395485D01*
X91521113Y-76227309D01*
X91461284Y-76096341D01*
X91429435Y-76029666D01*
X91390144Y-75966562D01*
X91349663Y-75933225D01*
X91286560Y-75923700D01*
X91166307Y-75964181D01*
X91060937Y-76036809D01*
X91025813Y-76116581D01*
X90893517Y-76116581D01*
X90891272Y-76064194D01*
X90868651Y-76001091D01*
X90804357Y-75951084D01*
X90684104Y-75935606D01*
X90562660Y-75948703D01*
X90497176Y-75995137D01*
X90474554Y-76054669D01*
X90470982Y-76135631D01*
X90470982Y-76785712D01*
X90082838Y-76785712D01*
X90228094Y-76204688D01*
X90230476Y-76197544D01*
X90247144Y-76097531D01*
X90205472Y-76005853D01*
X90080457Y-75945131D01*
X89970919Y-75928463D01*
X89888766Y-75954656D01*
X89845904Y-76009425D01*
X89820901Y-76092769D01*
X89623257Y-76890487D01*
X89616113Y-76985737D01*
X89301160Y-76985737D01*
X89350604Y-76930969D01*
X89416088Y-76821431D01*
X89460737Y-76696416D01*
X89475619Y-76564256D01*
X89455776Y-76400611D01*
X89396244Y-76249402D01*
X89297026Y-76110628D01*
X89165925Y-76000165D01*
X89010746Y-75933886D01*
X88831491Y-75911794D01*
X88652368Y-75933622D01*
X88497587Y-75999106D01*
X88367147Y-76108247D01*
X88268590Y-76244904D01*
X88209456Y-76392939D01*
X88189744Y-76552350D01*
X88201651Y-76673794D01*
X88266540Y-76741659D01*
X88399294Y-76764281D01*
X88520738Y-76749994D01*
X88585032Y-76707131D01*
X88607654Y-76647600D01*
X88611226Y-76569019D01*
X88611226Y-76554731D01*
X88620751Y-76499962D01*
X88683854Y-76389234D01*
X88816013Y-76333275D01*
X88935076Y-76354706D01*
X88998179Y-76401141D01*
X89035088Y-76465434D01*
X89051757Y-76526156D01*
X89029433Y-76630336D01*
X88962460Y-76728562D01*
X88863936Y-76818752D01*
X88746957Y-76898822D01*
X88620751Y-76974427D01*
X88494544Y-77051222D01*
X88377565Y-77136352D01*
X88279041Y-77236959D01*
X88212069Y-77350366D01*
X88189744Y-77473894D01*
X87681744Y-77473894D01*
X87692063Y-77411981D01*
X87692063Y-77219100D01*
X87896851Y-77219100D01*
X88018294Y-77197669D01*
X88058776Y-77140519D01*
X88070682Y-77032172D01*
X88057585Y-76923825D01*
X88006388Y-76863103D01*
X87884944Y-76842863D01*
X87692063Y-76842863D01*
X87692063Y-76652363D01*
X87670632Y-76521394D01*
X87612291Y-76477341D01*
X87503944Y-76464244D01*
X87395597Y-76477341D01*
X87334876Y-76528537D01*
X87315826Y-76649981D01*
X87315826Y-76842863D01*
X87125326Y-76842863D01*
X86994357Y-76864294D01*
X86947922Y-76922634D01*
X86934826Y-77030981D01*
X85075234Y-77030981D01*
X85061098Y-76935685D01*
X85054432Y-76800000D01*
X85061098Y-76664315D01*
X85081031Y-76529936D01*
X85114039Y-76398159D01*
X85159805Y-76270251D01*
X85217888Y-76147446D01*
X85287729Y-76030924D01*
X85368654Y-75921809D01*
X85459884Y-75821152D01*
X85560541Y-75729922D01*
X85669656Y-75648997D01*
X85786177Y-75579156D01*
X85908983Y-75521074D01*
X86036891Y-75475308D01*
X86168668Y-75442299D01*
X86303047Y-75422366D01*
X86438732Y-75415700D01*
X93314988Y-75415700D01*
X94145568Y-78184300D01*
X86438732Y-78184300D01*
X86303047Y-78177634D01*
G37*
%TO.C,kibuzzard-6314DFBD*%
G36*
X102028219Y-60459531D02*
G01*
X102097672Y-60606375D01*
X101946859Y-60733375D01*
X101446797Y-60733375D01*
X101573797Y-60509141D01*
X101829781Y-60403969D01*
X102028219Y-60459531D01*
G37*
G36*
X121693375Y-60459531D02*
G01*
X121762828Y-60606375D01*
X121612016Y-60733375D01*
X121111953Y-60733375D01*
X121238953Y-60509141D01*
X121494937Y-60403969D01*
X121693375Y-60459531D01*
G37*
G36*
X119385547Y-60628203D02*
G01*
X119480797Y-60868312D01*
X119377609Y-61106438D01*
X119127578Y-61213594D01*
X118883500Y-61106438D01*
X118786266Y-60870297D01*
X118879531Y-60630188D01*
X119131547Y-60519063D01*
X119385547Y-60628203D01*
G37*
G36*
X108731437Y-60626219D02*
G01*
X108824703Y-60866328D01*
X108727469Y-61102469D01*
X108483391Y-61209625D01*
X108233359Y-61104453D01*
X108130172Y-60868312D01*
X108227406Y-60626219D01*
X108481406Y-60515094D01*
X108731437Y-60626219D01*
G37*
G36*
X115281859Y-60566687D02*
G01*
X115374133Y-60686742D01*
X115404891Y-60856406D01*
X115372148Y-61027063D01*
X115273922Y-61150094D01*
X115011984Y-61249313D01*
X114754016Y-61152078D01*
X114658766Y-61031031D01*
X114627016Y-60862359D01*
X114657773Y-60693191D01*
X114750047Y-60570656D01*
X115015953Y-60471438D01*
X115281859Y-60566687D01*
G37*
G36*
X95054199Y-58009490D02*
G01*
X125911495Y-58009490D01*
X127345801Y-62790510D01*
X96488505Y-62790510D01*
X96117824Y-61554906D01*
X97315328Y-61554906D01*
X97321281Y-61697781D01*
X97358984Y-61800969D01*
X97464156Y-61881336D01*
X97660609Y-61908125D01*
X97863016Y-61881336D01*
X97970172Y-61800969D01*
X98007875Y-61699766D01*
X98013828Y-61562844D01*
X98013828Y-60225375D01*
X98087250Y-60324098D01*
X98267828Y-60572641D01*
X98463289Y-60840035D01*
X98581359Y-60995313D01*
X98613109Y-61038969D01*
X98718281Y-61120328D01*
X98881000Y-61162000D01*
X99047687Y-61116359D01*
X99144922Y-61044922D01*
X99216359Y-60951656D01*
X99302680Y-60834082D01*
X99458453Y-60616297D01*
X99626133Y-60384621D01*
X99748172Y-60225375D01*
X99748172Y-61554906D01*
X99768016Y-61761281D01*
X99823578Y-61840656D01*
X99926766Y-61888281D01*
X100109328Y-61908125D01*
X100299828Y-61884313D01*
X100412937Y-61780133D01*
X100450641Y-61562844D01*
X100450641Y-60876250D01*
X100708609Y-60876250D01*
X100736391Y-61132455D01*
X100819734Y-61371903D01*
X100958641Y-61594594D01*
X101110941Y-61744910D01*
X101313844Y-61862484D01*
X101558418Y-61938387D01*
X101835734Y-61963688D01*
X102205572Y-61941611D01*
X102469742Y-61875383D01*
X102628244Y-61765002D01*
X102681078Y-61610469D01*
X102629484Y-61427906D01*
X102411203Y-61249313D01*
X102252453Y-61292969D01*
X102208797Y-61308844D01*
X102053023Y-61344563D01*
X101847641Y-61356469D01*
X101585703Y-61281063D01*
X101454734Y-61094531D01*
X102395328Y-61094531D01*
X102663219Y-60977453D01*
X102735847Y-60858391D01*
X102982703Y-60858391D01*
X103008500Y-61103461D01*
X103085891Y-61326703D01*
X103203961Y-61517699D01*
X103351797Y-61666031D01*
X103582425Y-61813757D01*
X103819227Y-61902392D01*
X104062203Y-61931938D01*
X104365812Y-61892250D01*
X104617828Y-61773188D01*
X104781539Y-61637258D01*
X104809381Y-61562844D01*
X105094078Y-61562844D01*
X105100031Y-61701750D01*
X105133766Y-61804938D01*
X105237945Y-61885305D01*
X105439359Y-61912094D01*
X105642758Y-61886297D01*
X105744953Y-61808906D01*
X105782656Y-61703734D01*
X105788609Y-61566813D01*
X105788609Y-60796875D01*
X105911641Y-60604391D01*
X106159687Y-60519063D01*
X106391859Y-60610344D01*
X106483141Y-60864344D01*
X106483141Y-61558875D01*
X106489094Y-61701750D01*
X106526797Y-61808906D01*
X106631969Y-61886297D01*
X106828422Y-61912094D01*
X107031820Y-61886297D01*
X107134016Y-61808906D01*
X107171719Y-61703734D01*
X107177672Y-61566813D01*
X107177672Y-60868312D01*
X107177040Y-60862359D01*
X107435641Y-60862359D01*
X107468273Y-61127604D01*
X107566168Y-61370359D01*
X107729328Y-61590625D01*
X107930632Y-61764809D01*
X108142960Y-61869319D01*
X108366312Y-61904156D01*
X108660496Y-61851570D01*
X108856453Y-61693813D01*
X108941781Y-61850578D01*
X109231500Y-61904156D01*
X109407613Y-61878359D01*
X109503359Y-61800969D01*
X109537094Y-61695797D01*
X109543047Y-61558875D01*
X109860547Y-61558875D01*
X109866500Y-61695797D01*
X109900234Y-61800969D01*
X110004414Y-61881336D01*
X110205828Y-61908125D01*
X110409227Y-61881336D01*
X110511422Y-61800969D01*
X110549125Y-61699766D01*
X110555078Y-61562844D01*
X110555078Y-60860375D01*
X110652312Y-60610344D01*
X110906312Y-60515094D01*
X111156344Y-60606375D01*
X111249609Y-60860375D01*
X111249609Y-61558875D01*
X111273422Y-61761281D01*
X111376609Y-61871414D01*
X111598859Y-61908125D01*
X111803250Y-61881336D01*
X111908422Y-61800969D01*
X111942156Y-61699766D01*
X111948109Y-61562844D01*
X111948109Y-61042938D01*
X112206078Y-61042938D01*
X112225922Y-61225500D01*
X112314227Y-61326703D01*
X112491828Y-61360438D01*
X113436391Y-61360438D01*
X113634828Y-61324719D01*
X113704281Y-61227484D01*
X113726109Y-61046906D01*
X113702815Y-60868312D01*
X113924547Y-60868312D01*
X113966715Y-61169441D01*
X114093219Y-61437828D01*
X114281238Y-61659086D01*
X114507953Y-61818828D01*
X114757984Y-61915566D01*
X115015953Y-61947813D01*
X115273426Y-61917551D01*
X115521969Y-61826766D01*
X115747691Y-61671984D01*
X115843884Y-61558875D01*
X118083797Y-61558875D01*
X118089750Y-61695797D01*
X118123484Y-61800969D01*
X118227664Y-61881336D01*
X118429078Y-61908125D01*
X118669187Y-61859508D01*
X118770391Y-61713656D01*
X118961883Y-61856531D01*
X119250609Y-61904156D01*
X119470655Y-61869540D01*
X119680998Y-61765691D01*
X119881641Y-61592609D01*
X120044800Y-61373446D01*
X120142696Y-61131352D01*
X120174106Y-60876250D01*
X120373766Y-60876250D01*
X120401547Y-61132455D01*
X120484891Y-61371903D01*
X120623797Y-61594594D01*
X120776098Y-61744910D01*
X120979000Y-61862484D01*
X121223574Y-61938387D01*
X121500891Y-61963688D01*
X121870729Y-61941611D01*
X122134898Y-61875383D01*
X122293400Y-61765002D01*
X122346234Y-61610469D01*
X122294641Y-61427906D01*
X122076359Y-61249313D01*
X121917609Y-61292969D01*
X121873953Y-61308844D01*
X121718180Y-61344563D01*
X121512797Y-61356469D01*
X121250859Y-61281063D01*
X121119891Y-61094531D01*
X122060484Y-61094531D01*
X122105888Y-61074688D01*
X122707391Y-61074688D01*
X122735172Y-61441797D01*
X122818516Y-61693813D01*
X122963375Y-61825773D01*
X123215391Y-61896219D01*
X123532891Y-61914078D01*
X123707516Y-61872406D01*
X123767047Y-61768227D01*
X123786891Y-61566813D01*
X123707516Y-61285031D01*
X123640047Y-61251297D01*
X123530906Y-61245344D01*
X123425734Y-61207641D01*
X123408202Y-61074688D01*
X124005172Y-61074688D01*
X124032953Y-61441797D01*
X124116297Y-61693813D01*
X124261156Y-61825773D01*
X124513172Y-61896219D01*
X124830672Y-61914078D01*
X125005297Y-61872406D01*
X125064828Y-61768227D01*
X125084672Y-61566813D01*
X125005297Y-61285031D01*
X124937828Y-61251297D01*
X124828688Y-61245344D01*
X124723516Y-61207641D01*
X124699703Y-61027063D01*
X124699703Y-59189531D01*
X124693750Y-59050625D01*
X124656047Y-58943469D01*
X124550875Y-58863102D01*
X124354422Y-58836312D01*
X124150031Y-58863102D01*
X124044859Y-58943469D01*
X124011125Y-59048641D01*
X124005172Y-59185562D01*
X124005172Y-61074688D01*
X123408202Y-61074688D01*
X123401922Y-61027063D01*
X123401922Y-59189531D01*
X123395969Y-59050625D01*
X123358266Y-58943469D01*
X123253094Y-58863102D01*
X123056641Y-58836312D01*
X122852250Y-58863102D01*
X122747078Y-58943469D01*
X122713344Y-59048641D01*
X122707391Y-59185562D01*
X122707391Y-61074688D01*
X122105888Y-61074688D01*
X122328375Y-60977453D01*
X122419160Y-60828625D01*
X122449422Y-60616297D01*
X122415687Y-60381645D01*
X122314484Y-60165844D01*
X122167145Y-59995684D01*
X121983094Y-59874141D01*
X121762332Y-59801215D01*
X121504859Y-59776906D01*
X121199927Y-59810200D01*
X120930714Y-59910080D01*
X120697219Y-60076547D01*
X120517523Y-60298576D01*
X120409705Y-60565144D01*
X120373766Y-60876250D01*
X120174106Y-60876250D01*
X120175328Y-60866328D01*
X120142476Y-60601083D01*
X120043918Y-60358328D01*
X119879656Y-60138063D01*
X119676148Y-59963878D01*
X119459851Y-59859368D01*
X119230766Y-59824531D01*
X118970812Y-59873148D01*
X118778328Y-60019000D01*
X118778328Y-59193500D01*
X118772375Y-59056578D01*
X118734672Y-58951406D01*
X118633469Y-58871039D01*
X118433047Y-58844250D01*
X118228656Y-58871039D01*
X118123484Y-58951406D01*
X118089750Y-59052609D01*
X118083797Y-59189531D01*
X118083797Y-61558875D01*
X115843884Y-61558875D01*
X115936703Y-61449734D01*
X116064695Y-61175395D01*
X116082863Y-61042938D01*
X116305797Y-61042938D01*
X116325641Y-61225500D01*
X116413945Y-61326703D01*
X116591547Y-61360438D01*
X117536109Y-61360438D01*
X117734547Y-61324719D01*
X117804000Y-61227484D01*
X117825828Y-61046906D01*
X117802016Y-60864344D01*
X117716687Y-60766117D01*
X117540078Y-60733375D01*
X116595516Y-60733375D01*
X116405016Y-60769094D01*
X116329609Y-60864344D01*
X116305797Y-61042938D01*
X116082863Y-61042938D01*
X116107359Y-60864344D01*
X116070759Y-60565585D01*
X115960957Y-60304309D01*
X115777953Y-60080516D01*
X115547325Y-59909639D01*
X115294648Y-59807113D01*
X115019922Y-59772937D01*
X114744755Y-59807333D01*
X114490755Y-59910521D01*
X114257922Y-60082500D01*
X114072714Y-60307396D01*
X113961589Y-60569333D01*
X113924547Y-60868312D01*
X113702815Y-60868312D01*
X113702297Y-60864344D01*
X113616969Y-60766117D01*
X113440359Y-60733375D01*
X112495797Y-60733375D01*
X112305297Y-60769094D01*
X112229891Y-60864344D01*
X112206078Y-61042938D01*
X111948109Y-61042938D01*
X111948109Y-60864344D01*
X111918785Y-60588075D01*
X111830811Y-60341351D01*
X111684187Y-60124172D01*
X111493467Y-59955500D01*
X111273201Y-59854297D01*
X111023391Y-59820563D01*
X110725734Y-59911844D01*
X110618578Y-59995187D01*
X110547141Y-60074562D01*
X110507453Y-59911844D01*
X110405258Y-59843383D01*
X110209797Y-59820563D01*
X110008383Y-59845367D01*
X109904203Y-59919781D01*
X109866500Y-60020984D01*
X109860547Y-60153938D01*
X109860547Y-61558875D01*
X109543047Y-61558875D01*
X109543047Y-60169813D01*
X109537094Y-60032891D01*
X109501375Y-59927719D01*
X109396203Y-59844375D01*
X109166016Y-59820563D01*
X108942773Y-59876125D01*
X108852484Y-60042812D01*
X108781047Y-59961453D01*
X108626266Y-59872156D01*
X108380203Y-59824531D01*
X108151118Y-59859148D01*
X107934821Y-59962997D01*
X107731312Y-60136078D01*
X107567050Y-60355241D01*
X107468493Y-60597335D01*
X107435641Y-60862359D01*
X107177040Y-60862359D01*
X107148347Y-60592264D01*
X107060373Y-60346201D01*
X106913750Y-60130125D01*
X106723030Y-59962556D01*
X106502764Y-59862014D01*
X106252953Y-59828500D01*
X106003914Y-59889023D01*
X105788609Y-60070594D01*
X105788609Y-59193500D01*
X105782656Y-59056578D01*
X105744953Y-58951406D01*
X105643750Y-58871039D01*
X105443328Y-58844250D01*
X105238937Y-58871039D01*
X105133766Y-58951406D01*
X105100031Y-59052609D01*
X105094078Y-59189531D01*
X105094078Y-61562844D01*
X104809381Y-61562844D01*
X104836109Y-61491406D01*
X104744828Y-61285031D01*
X104587070Y-61127273D01*
X104455109Y-61074688D01*
X104278500Y-61148109D01*
X104044344Y-61221531D01*
X103808203Y-61128266D01*
X103697078Y-60866328D01*
X103812172Y-60602406D01*
X104060219Y-60507156D01*
X104264609Y-60574625D01*
X104478922Y-60661937D01*
X104612867Y-60607367D01*
X104752766Y-60443656D01*
X104836109Y-60215453D01*
X104732922Y-60034875D01*
X104621797Y-59959469D01*
X104558297Y-59919781D01*
X104347953Y-59838422D01*
X104054266Y-59796750D01*
X103810408Y-59825854D01*
X103576252Y-59913167D01*
X103351797Y-60058687D01*
X103203961Y-60206027D01*
X103085891Y-60394047D01*
X103008500Y-60614313D01*
X102982703Y-60858391D01*
X102735847Y-60858391D01*
X102754004Y-60828625D01*
X102784266Y-60616297D01*
X102750531Y-60381645D01*
X102649328Y-60165844D01*
X102501988Y-59995684D01*
X102317937Y-59874141D01*
X102097176Y-59801215D01*
X101839703Y-59776906D01*
X101534771Y-59810200D01*
X101265557Y-59910080D01*
X101032062Y-60076547D01*
X100852366Y-60298576D01*
X100744549Y-60565144D01*
X100708609Y-60876250D01*
X100450641Y-60876250D01*
X100450641Y-59360187D01*
X100444687Y-59221281D01*
X100406984Y-59114125D01*
X100302309Y-59033758D01*
X100099406Y-59006969D01*
X99893527Y-59033758D01*
X99779922Y-59114125D01*
X99671496Y-59252714D01*
X99527192Y-59439880D01*
X99347011Y-59675624D01*
X99130952Y-59959945D01*
X98879016Y-60292844D01*
X97978109Y-59110156D01*
X97954297Y-59086344D01*
X97853094Y-59032766D01*
X97668547Y-59006969D01*
X97466141Y-59032766D01*
X97358984Y-59110156D01*
X97321281Y-59215328D01*
X97315328Y-59352250D01*
X97315328Y-61554906D01*
X96117824Y-61554906D01*
X95054199Y-58009490D01*
G37*
D11*
%TO.C,SW1*%
X106950000Y-64600000D02*
X106950000Y-65250000D01*
X113450000Y-70750000D02*
X113450000Y-71400000D01*
X106950000Y-71400000D02*
X106950000Y-70750000D01*
X113450000Y-64600000D02*
X106950000Y-64600000D01*
X106950000Y-66750000D02*
X106950000Y-69250000D01*
X113450000Y-65250000D02*
X113450000Y-64600000D01*
X113450000Y-71400000D02*
X106950000Y-71400000D01*
X113450000Y-66750000D02*
X113450000Y-69250000D01*
%TO.C,J4*%
X178670000Y-84270000D02*
X181330000Y-84270000D01*
X178670000Y-81670000D02*
X180000000Y-81670000D01*
X178670000Y-84270000D02*
X178670000Y-89410000D01*
X181330000Y-84270000D02*
X181330000Y-89410000D01*
X178670000Y-83000000D02*
X178670000Y-81670000D01*
X178670000Y-89410000D02*
X181330000Y-89410000D01*
%TO.C,C1*%
X145738748Y-68765000D02*
X146261252Y-68765000D01*
X145738748Y-70235000D02*
X146261252Y-70235000D01*
%TO.C,SW2*%
X95750000Y-71400000D02*
X95750000Y-70750000D01*
X102250000Y-70750000D02*
X102250000Y-71400000D01*
X102250000Y-66750000D02*
X102250000Y-69250000D01*
X102250000Y-64600000D02*
X95750000Y-64600000D01*
X95750000Y-66750000D02*
X95750000Y-69250000D01*
X102250000Y-71400000D02*
X95750000Y-71400000D01*
X102250000Y-65250000D02*
X102250000Y-64600000D01*
X95750000Y-64600000D02*
X95750000Y-65250000D01*
%TO.C,R5*%
X154685436Y-72735000D02*
X155139564Y-72735000D01*
X154685436Y-71265000D02*
X155139564Y-71265000D01*
%TO.C,U2*%
X160810000Y-94250000D02*
X160810000Y-76250000D01*
X142000000Y-76250000D02*
X141250000Y-76250000D01*
X166750000Y-76250000D02*
X160000000Y-76250000D01*
X166750000Y-94250000D02*
X160000000Y-94250000D01*
X141250000Y-76250000D02*
X141250000Y-77250000D01*
X142000000Y-94250000D02*
X141250000Y-94250000D01*
X166750000Y-76250000D02*
X166750000Y-94250000D01*
X141250000Y-94250000D02*
X141250000Y-93250000D01*
%TO.C,C3*%
X130965000Y-72338748D02*
X130965000Y-72861252D01*
X132435000Y-72338748D02*
X132435000Y-72861252D01*
%TO.C,C8*%
X163238748Y-98235000D02*
X163761252Y-98235000D01*
X163238748Y-96765000D02*
X163761252Y-96765000D01*
%TO.C,RN1*%
X134400000Y-62720000D02*
X133600000Y-62720000D01*
X134400000Y-59280000D02*
X133600000Y-59280000D01*
%TO.C,R3*%
X108360436Y-79735000D02*
X108814564Y-79735000D01*
X108360436Y-78265000D02*
X108814564Y-78265000D01*
%TO.C,J1*%
X84100000Y-89135000D02*
X89500000Y-89135000D01*
X94300000Y-78785000D02*
X81700000Y-78785000D01*
X84300000Y-89635000D02*
X84350000Y-89635000D01*
X89500000Y-89135000D02*
X89200000Y-89635000D01*
X84350000Y-89635000D02*
X84100000Y-89135000D01*
X94300000Y-89635000D02*
X94300000Y-78785000D01*
X82650000Y-89135000D02*
X82400000Y-89635000D01*
X89200000Y-89635000D02*
X94300000Y-89635000D01*
X81700000Y-89135000D02*
X82650000Y-89135000D01*
X81700000Y-78785000D02*
X81700000Y-89135000D01*
X82400000Y-89635000D02*
X84300000Y-89635000D01*
%TO.C,Q2*%
X117500000Y-86060000D02*
X116850000Y-86060000D01*
X117500000Y-82940000D02*
X118150000Y-82940000D01*
X117500000Y-86060000D02*
X118150000Y-86060000D01*
X117500000Y-82940000D02*
X115825000Y-82940000D01*
%TO.C,R4*%
X117360436Y-78265000D02*
X117814564Y-78265000D01*
X117360436Y-79735000D02*
X117814564Y-79735000D01*
%TO.C,Q1*%
X108500000Y-86060000D02*
X109150000Y-86060000D01*
X108500000Y-82940000D02*
X109150000Y-82940000D01*
X108500000Y-82940000D02*
X106825000Y-82940000D01*
X108500000Y-86060000D02*
X107850000Y-86060000D01*
%TO.C,C6*%
X154738748Y-67765000D02*
X155261252Y-67765000D01*
X154738748Y-69235000D02*
X155261252Y-69235000D01*
%TO.C,C2*%
X140811252Y-68765000D02*
X140288748Y-68765000D01*
X140811252Y-70235000D02*
X140288748Y-70235000D01*
%TO.C,C4*%
X119935000Y-72388748D02*
X119935000Y-72911252D01*
X118465000Y-72388748D02*
X118465000Y-72911252D01*
%TO.C,R1*%
X102272936Y-78265000D02*
X102727064Y-78265000D01*
X102272936Y-79735000D02*
X102727064Y-79735000D01*
%TO.C,R2*%
X122860436Y-79735000D02*
X123314564Y-79735000D01*
X122860436Y-78265000D02*
X123314564Y-78265000D01*
%TO.C,C7*%
X159688748Y-72735000D02*
X160211252Y-72735000D01*
X159688748Y-71265000D02*
X160211252Y-71265000D01*
%TO.C,J3*%
X139895000Y-99670000D02*
X157735000Y-99670000D01*
X157735000Y-102330000D02*
X157735000Y-99670000D01*
X138625000Y-102330000D02*
X137295000Y-102330000D01*
X139895000Y-102330000D02*
X157735000Y-102330000D01*
X137295000Y-102330000D02*
X137295000Y-101000000D01*
X139895000Y-102330000D02*
X139895000Y-99670000D01*
%TO.C,J2*%
X130650000Y-90200000D02*
X130650000Y-95250000D01*
X130150000Y-102800000D02*
X109850000Y-102800000D01*
X130650000Y-95250000D02*
X130150000Y-95000000D01*
X109850000Y-90200000D02*
X130650000Y-90200000D01*
X109850000Y-102800000D02*
X109850000Y-90200000D01*
X130700000Y-102150000D02*
X130150000Y-101850000D01*
X130700000Y-100100000D02*
X130700000Y-102150000D01*
X130150000Y-100400000D02*
X130700000Y-100100000D01*
X130150000Y-101850000D02*
X130150000Y-102800000D01*
X130150000Y-95000000D02*
X130150000Y-100400000D01*
%TO.C,D1*%
X173650000Y-102250000D02*
X173650000Y-101100000D01*
X166350000Y-96750000D02*
X173650000Y-96750000D01*
X166350000Y-102250000D02*
X173650000Y-102250000D01*
%TO.C,U1*%
X121790000Y-72250000D02*
X121790000Y-66240000D01*
X128610000Y-70000000D02*
X128610000Y-66240000D01*
X121790000Y-66240000D02*
X123050000Y-66240000D01*
X128610000Y-66240000D02*
X127350000Y-66240000D01*
%TO.C,C5*%
X159688748Y-67765000D02*
X160211252Y-67765000D01*
X159688748Y-69235000D02*
X160211252Y-69235000D01*
%TD*%
M02*
